<svg width="56" height="56" viewBox="0 0 56 56" fill="none" xmlns="http://www.w3.org/2000/svg">
<g clip-path="url(#clip0)">
<path d="M23.4906 46.5968L22.5336 44.8408L45.1702 32.5138L32.1814 11.2528L10.3998 23.7968L9.40186 22.0638L32.8724 8.54675L47.9732 33.2658L23.4906 46.5968Z" fill="black"/>
<path d="M53.3218 10.2061C52.3738 9.8741 51.3356 9.91094 50.4135 10.3093C49.4915 10.7076 48.753 11.4383 48.3449 12.3561L44.3139 11.5221C44.2485 11.9988 44.1536 12.471 44.0299 12.9361C44.0079 13.0207 43.9849 13.1037 43.9609 13.1851L48.0009 14.0211C48.0081 14.7532 48.2162 15.4694 48.6024 16.0914C48.9886 16.7135 49.5381 17.2176 50.1911 17.5489C50.8441 17.8801 51.5754 18.0258 52.3055 17.9699C53.0356 17.9141 53.7363 17.659 54.3313 17.2324C54.9264 16.8057 55.3929 16.224 55.6801 15.5504C55.9673 14.8769 56.0641 14.1375 55.9599 13.4127C55.8558 12.688 55.5547 12.0057 55.0896 11.4403C54.6244 10.8748 54.0129 10.4479 53.3218 10.2061V10.2061ZM54.1658 14.7431C54.0155 15.1725 53.7412 15.5477 53.3776 15.8212C53.014 16.0948 52.5775 16.2543 52.1232 16.2797C51.6689 16.305 51.2173 16.1951 50.8255 15.9637C50.4338 15.7324 50.1194 15.39 49.9222 14.98C49.725 14.57 49.6539 14.1107 49.7178 13.6602C49.7817 13.2097 49.9778 12.7883 50.2812 12.4493C50.5847 12.1103 50.9819 11.8689 51.4225 11.7556C51.8632 11.6424 52.3275 11.6624 52.7568 11.8131C53.332 12.015 53.8035 12.4371 54.0677 12.9865C54.3319 13.5359 54.3672 14.1677 54.1658 14.7431V14.7431Z" fill="black"/>
<path d="M29.9976 25.0638C29.5728 24.9152 29.1256 24.8405 28.6756 24.8428C27.9659 24.8428 27.269 25.0317 26.6564 25.39C26.0438 25.7483 25.5376 26.2632 25.1897 26.8818L21.4667 25.7318L21.4057 25.9708C21.2813 26.4395 21.1287 26.9004 20.9487 27.3508L24.6927 28.5018C24.6295 29.2473 24.7768 29.9956 25.1177 30.6617C25.4586 31.3278 25.9794 31.8848 26.6211 32.2697C27.2628 32.6545 27.9995 32.8516 28.7476 32.8387C29.4957 32.8257 30.2252 32.6032 30.8531 32.1964C31.4811 31.7896 31.9823 31.2148 32.3 30.5373C32.6176 29.8599 32.7388 29.1069 32.6499 28.364C32.561 27.621 32.2655 26.918 31.797 26.3346C31.3285 25.7512 30.7058 25.3109 29.9996 25.0638H29.9976ZM30.8456 29.5978C30.7061 29.9961 30.4598 30.3483 30.1335 30.616C29.8073 30.8836 29.4137 31.0564 28.9958 31.1153C28.578 31.1742 28.152 31.117 27.7644 30.9499C27.3769 30.7829 27.0428 30.5125 26.7987 30.1682C26.5546 29.824 26.4099 29.4193 26.3804 28.9983C26.351 28.5773 26.4379 28.1564 26.6317 27.7815C26.8255 27.4066 27.1187 27.0923 27.4792 26.8729C27.8397 26.6536 28.2536 26.5376 28.6756 26.5378C28.9345 26.5376 29.1915 26.5816 29.4356 26.6678C30.011 26.8695 30.4827 27.2915 30.7471 27.8409C31.0115 28.3903 31.0469 29.0222 30.8456 29.5978V29.5978Z" fill="black"/>
<path d="M40.8951 48.224C40.0468 47.9258 39.1227 47.9226 38.2723 48.2148C37.422 48.5069 36.6951 49.0774 36.2091 49.834L33.7442 48.913C33.5828 49.4573 33.3803 49.9885 33.1382 50.502L35.6141 51.427C35.5051 52.1775 35.6117 52.9434 35.9214 53.6356C36.2311 54.3278 36.7311 54.9178 37.3633 55.3366C37.9955 55.7554 38.7337 55.9859 39.4918 56.0012C40.25 56.0165 40.9969 55.816 41.6454 55.423C42.2939 55.03 42.8174 54.4608 43.1548 53.7816C43.4922 53.1025 43.6295 52.3414 43.5509 51.5872C43.4722 50.8329 43.1808 50.1166 42.7106 49.5217C42.2404 48.9267 41.6107 48.4777 40.8951 48.227V48.224ZM41.743 52.759C41.5926 53.1883 41.3183 53.5634 40.9547 53.8368C40.5912 54.1102 40.1547 54.2697 39.7005 54.295C39.2463 54.3203 38.7948 54.2104 38.4031 53.9791C38.0114 53.7478 37.697 53.4056 37.4998 52.9957C37.3026 52.5857 37.2314 52.1265 37.2952 51.6761C37.359 51.2257 37.5549 50.8043 37.8581 50.4652C38.1614 50.1262 38.5584 49.8846 38.999 49.7712C39.4395 49.6578 39.9038 49.6775 40.3331 49.828C40.9087 50.0297 41.3806 50.4518 41.645 51.0015C41.9094 51.5512 41.9447 52.1833 41.743 52.759Z" fill="black"/>
<path fill-rule="evenodd" clip-rule="evenodd" d="M11.838 44.9671H7.89908C7.68262 44.0282 7.13454 43.199 6.3556 42.6319C5.57665 42.0649 4.6192 41.798 3.65923 41.8804C2.69927 41.9628 1.80131 42.389 1.13043 43.0806C0.45955 43.7721 0.0608363 44.6826 0.00758291 45.6447C-0.0456705 46.6067 0.250115 47.5557 0.840567 48.317C1.43102 49.0784 2.27645 49.6011 3.22146 49.789C4.16646 49.9769 5.14752 49.8173 5.98429 49.3397C6.82107 48.862 7.45731 48.0984 7.77608 47.1891C7.82469 47.0509 7.86542 46.91 7.89808 46.7671H11.859C11.8035 46.1687 11.7965 45.5667 11.838 44.9671V44.9671ZM6.17211 46.6271C6.15611 46.6725 6.13911 46.7165 6.12111 46.7591C5.88721 47.313 5.44489 47.7526 4.88964 47.9832C4.33438 48.2137 3.71074 48.2166 3.15335 47.9913C2.59596 47.766 2.14954 47.3305 1.91046 46.7789C1.67137 46.2272 1.65881 45.6037 1.87549 45.0429C2.09216 44.4821 2.52069 44.029 3.06855 43.7814C3.61642 43.5338 4.23967 43.5116 4.80376 43.7196C5.36784 43.9276 5.82751 44.3491 6.08352 44.893C6.33953 45.437 6.37135 46.0599 6.17211 46.6271V46.6271Z" fill="black"/>
<path d="M11.3239 0.225751C10.3298 -0.0979545 9.24853 -0.0196046 8.31152 0.444027C7.37451 0.907658 6.65625 1.71972 6.31051 2.70635C5.96478 3.69298 6.01905 4.77576 6.46172 5.72288C6.90438 6.66999 7.70025 7.40615 8.67893 7.77375C8.81751 7.82237 8.95873 7.8631 9.10192 7.89575V11.0578C9.36691 11.0398 9.63291 11.0308 9.8939 11.0308C10.2289 11.0308 10.5659 11.0458 10.9019 11.0748V7.89675C11.7458 7.70122 12.5034 7.23701 13.0608 6.57391C13.6183 5.91081 13.9454 5.08466 13.9929 4.21969C14.0405 3.35472 13.806 2.49769 13.3247 1.77744C12.8434 1.05719 12.1412 0.512673 11.3239 0.225751ZM12.1669 4.75975C11.9915 5.26218 11.6474 5.68828 11.1932 5.96543C10.7389 6.24258 10.2026 6.35364 9.67565 6.27968C9.14868 6.20572 8.66367 5.95132 8.30325 5.55983C7.94283 5.16834 7.72931 4.66398 7.69907 4.1327C7.66883 3.60142 7.82375 3.07609 8.13742 2.64623C8.45109 2.21637 8.90411 1.90858 9.41928 1.7753C9.93446 1.64203 10.4799 1.69152 10.9627 1.91534C11.4454 2.13916 11.8357 2.52346 12.0669 3.00275C12.3318 3.552 12.3678 4.18399 12.1669 4.75975V4.75975Z" fill="black"/>
<path d="M42.3513 11.1151C42.2957 11.558 42.2105 11.9966 42.0963 12.4281C42.0653 12.5461 42.0323 12.6621 41.9963 12.7781C41.9703 12.8671 41.9423 12.9551 41.9133 13.0421C41.8683 13.1761 41.8203 13.3091 41.7703 13.4421C41.7203 13.5751 41.6703 13.7021 41.6133 13.8301C41.53 14.0221 41.4417 14.2104 41.3483 14.3951C41.2543 14.5791 41.1553 14.7601 41.0483 14.9361C40.7728 15.4032 40.4591 15.8467 40.1104 16.2621C40.0234 16.3621 39.9354 16.4621 39.8444 16.5621L39.7074 16.7091L39.5674 16.8531C39.4734 16.9481 39.3774 17.0411 39.2804 17.1321C39.1834 17.2231 39.0804 17.3121 38.9804 17.3991C37.296 18.8441 35.1749 19.6812 32.9576 19.776C30.7404 19.8709 28.5556 19.2179 26.7539 17.9221C24.9523 16.6262 23.6383 14.7625 23.023 12.6302C22.4076 10.4979 22.5265 8.22068 23.3606 6.16409C23.4126 6.03076 23.4676 5.90276 23.5256 5.78009C23.6116 5.59076 23.7036 5.40509 23.8016 5.22309C23.8656 5.10209 23.9336 4.98309 24.0016 4.86509C24.4139 4.16561 24.9113 3.52 25.4826 2.94309C25.5766 2.84309 25.6726 2.75409 25.7706 2.66309C25.8686 2.57209 25.9706 2.48309 26.0706 2.39609C26.2706 2.22308 26.4816 2.05708 26.6966 1.89608C26.8046 1.81808 26.9126 1.74208 27.0236 1.66808C27.1336 1.59408 27.2456 1.52308 27.3586 1.45308C27.5292 1.34908 27.7026 1.24908 27.8786 1.15308C28.2896 0.933753 28.7156 0.743941 29.1535 0.585083C29.2785 0.540083 29.4055 0.497083 29.5325 0.456083C31.1143 -0.0459073 32.7968 -0.142223 34.4255 0.17599C36.0542 0.494203 37.5767 1.21673 38.8532 2.27716C40.1297 3.33759 41.1191 4.70189 41.7305 6.24465C42.342 7.7874 42.5558 9.45911 42.3523 11.1061L42.3513 11.1151Z" fill="black"/>
<path d="M19.5486 25.143C19.5236 25.249 19.4976 25.354 19.4696 25.46C19.3525 25.903 19.2048 26.3374 19.0276 26.76C18.9876 26.86 18.9456 26.954 18.9016 27.05C18.8156 27.2393 18.7236 27.425 18.6256 27.607C18.5606 27.728 18.4936 27.847 18.4256 27.965C18.3256 28.141 18.2116 28.314 18.0976 28.483C17.9456 28.707 17.7846 28.925 17.6156 29.135C17.5316 29.24 17.4446 29.343 17.3566 29.444C17.2896 29.52 17.2226 29.594 17.1566 29.668C17.0906 29.742 17.0186 29.814 16.9486 29.885C16.9016 29.933 16.8536 29.98 16.8056 30.026C16.6149 30.2133 16.4149 30.3913 16.2056 30.56C16.1056 30.645 15.9986 30.728 15.8916 30.808C15.7846 30.888 15.6786 30.967 15.5696 31.043C15.4616 31.119 15.3506 31.193 15.2396 31.265C15.1276 31.337 15.0146 31.406 14.8996 31.473L14.7266 31.573C14.5526 31.6696 14.376 31.7616 14.1967 31.849C14.0767 31.906 13.9547 31.962 13.8327 32.015C13.6497 32.095 13.4637 32.169 13.2767 32.237C12.8993 32.374 12.5139 32.4879 12.1227 32.578C11.9927 32.609 11.8617 32.636 11.7297 32.661C11.1293 32.7741 10.5197 32.831 9.90873 32.831C9.59474 32.831 9.27874 32.816 8.96275 32.785C8.86275 32.776 8.76275 32.765 8.66275 32.751C8.64899 32.7502 8.63529 32.7486 8.62175 32.746C8.53176 32.735 8.44076 32.722 8.34976 32.707C8.02377 32.655 7.69777 32.586 7.37178 32.5C4.83369 31.8289 2.66609 30.1772 1.3457 27.908C0.0253177 25.6389 -0.339711 22.9382 0.330902 20.4C0.386235 20.192 0.447234 19.9873 0.513899 19.786C0.558898 19.652 0.606898 19.519 0.656897 19.386C0.706896 19.253 0.756895 19.126 0.813894 18.998C1.05882 18.4299 1.3568 17.8861 1.70388 17.374C1.81788 17.206 1.93687 17.041 2.06087 16.881C2.14287 16.774 2.22787 16.669 2.31387 16.566C2.35687 16.515 2.39987 16.466 2.44386 16.415C2.48786 16.365 2.53186 16.315 2.57686 16.267C2.66686 16.167 2.75786 16.067 2.85086 15.979L2.85686 15.973C2.90386 15.925 2.95086 15.873 2.99885 15.832C3.19085 15.6453 3.39085 15.4673 3.59884 15.298C3.69884 15.213 3.80584 15.13 3.91284 15.05C4.01984 14.97 4.12583 14.891 4.23483 14.815C4.34383 14.738 4.45383 14.664 4.56583 14.593C4.67782 14.522 4.79082 14.452 4.90582 14.385L5.07882 14.285C5.25415 14.1876 5.43114 14.0956 5.60981 14.009C5.72981 13.951 5.8508 13.896 5.9728 13.843C6.0638 13.803 6.1568 13.765 6.2498 13.728C6.3428 13.691 6.43579 13.655 6.52979 13.621C6.90687 13.4841 7.2919 13.3702 7.68277 13.28C7.81377 13.249 7.94477 13.222 8.07676 13.197C8.41675 13.1329 8.75989 13.0868 9.10475 13.059C9.36674 13.038 9.63174 13.027 9.89673 13.027C10.2107 13.027 10.5264 13.0423 10.8437 13.073H10.8577L10.9047 13.078L11.0327 13.092L11.1607 13.108C11.2667 13.121 11.3717 13.137 11.4777 13.154C11.7957 13.2046 12.1137 13.2713 12.4317 13.354C14.916 14.011 17.0475 15.6084 18.3756 17.8084C19.7037 20.0083 20.1243 22.6385 19.5486 25.143Z" fill="black"/>
<path d="M55.4661 35.2429C54.947 37.2027 53.7956 38.9365 52.1906 40.1752C50.5856 41.4139 48.6167 42.0884 46.5893 42.0939C45.791 42.0934 44.996 41.9895 44.2244 41.7849C42.4648 41.3204 40.8826 40.3445 39.6778 38.9807C38.4729 37.6169 37.6996 35.9263 37.4556 34.123C37.2116 32.3196 37.508 30.4843 38.3071 28.8494C39.1063 27.2144 40.3724 25.8532 41.9452 24.9379C43.5181 24.0226 45.327 23.5943 47.1433 23.7073C48.9596 23.8202 50.7016 24.4693 52.1489 25.5724C53.5963 26.6755 54.684 28.183 55.2744 29.9044C55.8649 31.6258 55.9316 33.4836 55.4661 35.2429Z" fill="black"/>
<path d="M31.9041 48.0681L31.8651 48.2111C31.2433 50.4098 29.8256 52.2985 27.888 53.5095C25.9503 54.7205 23.6314 55.167 21.3826 54.7623C19.1339 54.3575 17.1162 53.1303 15.7224 51.3197C14.3286 49.5091 13.6584 47.2446 13.8424 44.9671C13.8879 44.4267 13.9806 43.8913 14.1194 43.3671C14.7848 41.056 16.3287 39.0974 18.4205 37.9107C20.5122 36.724 22.9855 36.4036 25.3105 37.018C27.6356 37.6325 29.6277 39.133 30.8601 41.1982C32.0925 43.2634 32.4672 45.729 31.9041 48.0671V48.0681Z" fill="black"/>
</g>
<defs>
<clipPath id="clip0">
<rect width="56" height="56" fill="white"/>
</clipPath>
</defs>
</svg>
