<svg id="Capa_1" enable-background="new 0 0 512 512" height="512" viewBox="0 0 512 512" width="512" xmlns="http://www.w3.org/2000/svg"><g><g><path d="m502 255.999-120-120v60h-107.07c-108.53 0-209.09-56.94-264.93-150v420c55.84-93.06 156.4-150 264.93-150h107.07v60z" fill="#b8ecbc"/></g><g><circle cx="190" cy="255.999" r="10"/><circle cx="130" cy="225.999" r="10"/><circle cx="130" cy="285.999" r="10"/><circle cx="70" cy="195.999" r="10"/><circle cx="70" cy="255.999" r="10"/><circle cx="70" cy="315.999" r="10"/><circle cx="10" cy="255.999" r="10"/><path d="m7.331 475.636c4.354 1.207 8.945-.659 11.244-4.492 53.721-89.529 151.951-145.145 256.355-145.145h1.07v130h-20c-5.523 0-10 4.477-10 10s4.477 10 10 10h60c5.523 0 10-4.477 10-10s-4.477-10-10-10h-20v-130h76v50c0 4.044 2.437 7.691 6.173 9.239s8.038.692 10.898-2.167l120-120c3.905-3.905 3.905-10.237 0-14.143l-120-120c-2.86-2.86-7.163-3.717-10.898-2.167-3.737 1.548-6.173 5.194-6.173 9.239v50h-76v-130h20c5.523 0 10-4.477 10-10s-4.477-10-10-10h-60c-5.523 0-10 4.477-10 10s4.477 10 10 10h20v130h-1.07c-104.405 0-202.634-55.616-256.355-145.145-2.313-3.855-6.915-5.691-11.244-4.493-4.332 1.2-7.331 5.143-7.331 9.637v165c0 5.523 4.477 10 10 10s10-4.477 10-10v-132.282c61.609 81.87 156.851 127.282 254.93 127.282h1.07v100h-1.07c-98.074 0-193.319 45.408-254.93 127.282v-132.282c0-5.523-4.477-10-10-10s-10 4.477-10 10v165c0 4.495 2.999 8.438 7.331 9.637zm288.669-269.637h86c5.523 0 10-4.477 10-10v-35.858l95.858 95.858-95.858 95.858v-35.858c0-5.523-4.477-10-10-10h-86z"/></g></g></svg>