<?xml version="1.0" encoding="UTF-8" standalone="no"?>
<svg
   xmlns:dc="http://purl.org/dc/elements/1.1/"
   xmlns:cc="http://creativecommons.org/ns#"
   xmlns:rdf="http://www.w3.org/1999/02/22-rdf-syntax-ns#"
   xmlns:svg="http://www.w3.org/2000/svg"
   xmlns="http://www.w3.org/2000/svg"
   xmlns:sodipodi="http://sodipodi.sourceforge.net/DTD/sodipodi-0.dtd"
   xmlns:inkscape="http://www.inkscape.org/namespaces/inkscape"
   id="_x31__x2C_5"
   enable-background="new 0 0 24 24"
   height="512"
   viewBox="0 0 24 24"
   width="512"
   version="1.1"
   sodipodi:docname="export.svg"
   inkscape:version="0.92.4 (5da689c313, 2019-01-14)">
  <metadata
     id="metadata29">
    <rdf:RDF>
      <cc:Work
         rdf:about="">
        <dc:format>image/svg+xml</dc:format>
        <dc:type
           rdf:resource="http://purl.org/dc/dcmitype/StillImage" />
        <dc:title />
      </cc:Work>
    </rdf:RDF>
  </metadata>
  <defs
     id="defs27" />
  <sodipodi:namedview
     pagecolor="#ffffff"
     bordercolor="#666666"
     borderopacity="1"
     objecttolerance="10"
     gridtolerance="10"
     guidetolerance="10"
     inkscape:pageopacity="0"
     inkscape:pageshadow="2"
     inkscape:window-width="1920"
     inkscape:window-height="1027"
     id="namedview25"
     showgrid="false"
     inkscape:zoom="1.3037281"
     inkscape:cx="211.57411"
     inkscape:cy="290.18039"
     inkscape:window-x="-8"
     inkscape:window-y="-8"
     inkscape:window-maximized="1"
     inkscape:current-layer="_x31__x2C_5" />
  <path
     d="m19.25 4-9.25 3.25-9.25-3.25 9.25-3.24z"
     fill="#4caf50"
     id="path2" />
  <path
     d="m19.25 4v12l-9.25 3.25v-12z"
     fill="#66bb6a"
     id="path4" />
  <path
     d="m10 7.25v12l-9.25-3.25v-12z"
     fill="#81c784"
     id="path6" />
  <circle
     cx="17.5"
     cy="17.5"
     r="5.75"
     id="circle8"
     style="fill:#ff1515;fill-opacity:1"
     fill="#2196f3" />
  <path
     d="m 17.5,13.968 c -0.192,0 -0.384,0.073 -0.53,0.22 l -2.25,2.25 c -0.293,0.293 -0.293,0.768 0,1.061 0.293,0.293 0.768,0.293 1.061,0 l 1.72,-1.72 1.72,1.72 c 0.293,0.293 0.768,0.293 1.061,0 0.293,-0.293 0.293,-0.768 0,-1.061 l -2.25,-2.25 c -0.148,-0.147 -0.34,-0.22 -0.532,-0.22 z"
     id="path10"
     inkscape:connector-curvature="0" />
  <path
     d="m17.5 20.5c-.414 0-.75-.336-.75-.75v-5c0-.414.336-.75.75-.75s.75.336.75.75v5c0 .414-.336.75-.75.75z"
     id="path12" />
  <path
     d="m17.5 24c-3.584 0-6.5-2.916-6.5-6.5s2.916-6.5 6.5-6.5 6.5 2.916 6.5 6.5-2.916 6.5-6.5 6.5zm0-11.5c-2.757 0-5 2.243-5 5s2.243 5 5 5 5-2.243 5-5-2.243-5-5-5z"
     id="path14" />
  <path
     d="m10 8c-.084 0-.168-.014-.249-.042l-9.25-3.25c-.3-.105-.501-.39-.501-.708s.201-.603.501-.708l9.25-3.25c.162-.057.336-.057.498 0l9.25 3.25c.3.105.501.39.501.708s-.201.603-.501.708l-9.25 3.25c-.081.028-.165.042-.249.042zm-6.987-4 6.987 2.455 6.987-2.455-6.987-2.455z"
     id="path16" />
  <path
     d="m19.25 9c-.414 0-.75-.336-.75-.75v-4.25c0-.414.336-.75.75-.75s.75.336.75.75v4.25c0 .414-.336.75-.75.75z"
     id="path18" />
  <path
     d="m8.59 19.5c-.082 0-.166-.014-.248-.042l-7.84-2.75c-.301-.105-.502-.39-.502-.708v-12c0-.414.336-.75.75-.75s.75.336.75.75v11.469l7.338 2.573c.391.138.597.565.46.956-.109.309-.399.502-.708.502z"
     id="path20" />
  <path
     d="m10 13c-.414 0-.75-.336-.75-.75v-5c0-.414.336-.75.75-.75s.75.336.75.75v5c0 .414-.336.75-.75.75z"
     id="path22" />
</svg>
