<?xml version="1.0" encoding="UTF-8" standalone="no"?>
<svg
   xmlns:dc="http://purl.org/dc/elements/1.1/"
   xmlns:cc="http://creativecommons.org/ns#"
   xmlns:rdf="http://www.w3.org/1999/02/22-rdf-syntax-ns#"
   xmlns:svg="http://www.w3.org/2000/svg"
   xmlns="http://www.w3.org/2000/svg"
   xmlns:sodipodi="http://sodipodi.sourceforge.net/DTD/sodipodi-0.dtd"
   xmlns:inkscape="http://www.inkscape.org/namespaces/inkscape"
   version="1.1"
   id="Layer_1"
   x="0px"
   y="0px"
   viewBox="0 0 30 30"
   style="enable-background:new 0 0 30 30;"
   xml:space="preserve"
   sodipodi:docname="file_2.svg"
   inkscape:version="0.92.4 (5da689c313, 2019-01-14)"><metadata
   id="metadata23"><rdf:RDF><cc:Work
       rdf:about=""><dc:format>image/svg+xml</dc:format><dc:type
         rdf:resource="http://purl.org/dc/dcmitype/StillImage" /></cc:Work></rdf:RDF></metadata><defs
   id="defs21" /><sodipodi:namedview
   pagecolor="#ffffff"
   bordercolor="#666666"
   borderopacity="1"
   objecttolerance="10"
   gridtolerance="10"
   guidetolerance="10"
   inkscape:pageopacity="0"
   inkscape:pageshadow="2"
   inkscape:window-width="1920"
   inkscape:window-height="1027"
   id="namedview19"
   showgrid="false"
   inkscape:zoom="5.5625733"
   inkscape:cx="-59.95934"
   inkscape:cy="2.0216731"
   inkscape:window-x="-8"
   inkscape:window-y="-8"
   inkscape:window-maximized="1"
   inkscape:current-layer="Layer_1" />
<g
   id="g8">
	<polygon
   style="fill:#FFFFFF;"
   points="5.5,27.5 5.5,2.5 18.793,2.5 24.5,8.207 24.5,27.5  "
   id="polygon2" />
	<g
   id="g6">
		<path
   style="fill:#788B9C;"
   d="M18.586,3L24,8.414V27H6V3H18.586 M19,2H5v26h20V8L19,2L19,2z"
   id="path4" />
	</g>
</g>
<g
   id="g16">
	<polygon
   style="fill:#FFFFFF;"
   points="18.5,8.5 18.5,2.5 18.793,2.5 24.5,8.207 24.5,8.5  "
   id="polygon10" />
	<g
   id="g14">
		<path
   style="fill:#788B9C;"
   d="M19,3.414L23.586,8H19V3.414 M19,2h-1v7h7V8L19,2L19,2z"
   id="path12" />
	</g>
</g>
<g
   transform="translate(0.01483171)"
   id="g24"><circle
     style="fill:#bae0bd"
     cx="23"
     cy="23"
     r="6.5"
     id="circle18" /><g
     id="g22"><path
       inkscape:connector-curvature="0"
       style="fill:#5e9c76"
       d="m 23,17 c 3.308,0 6,2.692 6,6 0,3.308 -2.692,6 -6,6 -3.308,0 -6,-2.692 -6,-6 0,-3.308 2.692,-6 6,-6 m 0,-1 c -3.866,0 -7,3.134 -7,7 0,3.866 3.134,7 7,7 3.866,0 7,-3.134 7,-7 0,-3.866 -3.134,-7 -7,-7 z"
       id="path20" /></g></g><line
   style="fill:none;stroke:#ffffff;stroke-width:2;stroke-miterlimit:10"
   x1="23.11017"
   y1="26.96822"
   x2="23.11017"
   y2="18.96822"
   id="line26" /><line
   style="fill:none;stroke:#ffffff;stroke-width:2;stroke-miterlimit:10"
   x1="19.11017"
   y1="22.96822"
   x2="27.11017"
   y2="22.96822"
   id="line28" /></svg>