<?xml version="1.0" encoding="UTF-8" standalone="no"?>
<!-- Generator: Adobe Illustrator 19.0.0, SVG Export Plug-In . SVG Version: 6.00 Build 0)  -->

<svg
   xmlns:dc="http://purl.org/dc/elements/1.1/"
   xmlns:cc="http://creativecommons.org/ns#"
   xmlns:rdf="http://www.w3.org/1999/02/22-rdf-syntax-ns#"
   xmlns:svg="http://www.w3.org/2000/svg"
   xmlns="http://www.w3.org/2000/svg"
   xmlns:sodipodi="http://sodipodi.sourceforge.net/DTD/sodipodi-0.dtd"
   xmlns:inkscape="http://www.inkscape.org/namespaces/inkscape"
   version="1.1"
   id="Capa_1"
   x="0px"
   y="0px"
   viewBox="0 0 32 32"
   xml:space="preserve"
   sodipodi:docname="duplicate.svg"
   width="32"
   height="32"
   inkscape:version="0.92.4 (5da689c313, 2019-01-14)"><metadata
   id="metadata49"><rdf:RDF><cc:Work
       rdf:about=""><dc:format>image/svg+xml</dc:format><dc:type
         rdf:resource="http://purl.org/dc/dcmitype/StillImage" /><dc:title /></cc:Work></rdf:RDF></metadata><defs
   id="defs47" /><sodipodi:namedview
   pagecolor="#ffffff"
   bordercolor="#666666"
   borderopacity="1"
   objecttolerance="10"
   gridtolerance="10"
   guidetolerance="10"
   inkscape:pageopacity="0"
   inkscape:pageshadow="2"
   inkscape:window-width="1920"
   inkscape:window-height="1027"
   id="namedview45"
   showgrid="false"
   inkscape:zoom="14.75"
   inkscape:cx="7.6602598"
   inkscape:cy="13.35916"
   inkscape:window-x="-8"
   inkscape:window-y="-8"
   inkscape:window-maximized="1"
   inkscape:current-layer="g57" />





<g
   id="g57"
   transform="matrix(0.05932203,0,0,0.05932203,0.88135593,29.355932)"><rect
     id="rect2"
     height="335.40799"
     width="335.39999"
     style="fill:#668000"
     y="-464"
     x="16" /><path
     inkscape:connector-curvature="0"
     id="path4"
     d="m 335.4,-448 v 303.4 H 32 V -448 h 303.4 m 32,-32 H 0 v 367.4 h 367.4 z"
     style="fill:#668000;fill-opacity:1;stroke:none" /><rect
     id="rect6"
     height="335.40799"
     width="335.39999"
     style="fill:#aad400;fill-opacity:1"
     y="-391.67999"
     x="88.32" /><path
     inkscape:connector-curvature="0"
     id="path8"
     d="m 407.704,-375.704 v 303.4 H 104.296 v -303.4 h 303.408 m 32,-32 H 72.296 v 367.4 h 367.4 v -367.4 z"
     style="fill:#aad400;fill-opacity:1;stroke:none" /><rect
     id="rect10"
     height="335.39999"
     width="335.40799"
     style="fill:#ddff55;fill-opacity:1"
     y="-319.44"
     x="160.56" /><path
     inkscape:connector-curvature="0"
     id="path12"
     d="M 480,-303.4 V 0 H 176.6 V -303.4 H 480 m 32,-32 H 144.6 V 32 H 512 Z"
     style="fill:#ddff55" /><rect
     style="fill:#88aa00;fill-opacity:1;stroke-width:13.25270939"
     id="rect59"
     width="33.714287"
     height="33.714287"
     x="418.72552"
     y="-286.90964" /><rect
     style="fill:#88aa00;fill-opacity:1;stroke-width:13.25270939"
     id="rect59-0"
     width="33.714287"
     height="33.714287"
     x="378.70877"
     y="-287.04926" /><path
     inkscape:connector-curvature="0"
     id="path4-4"
     d="M 480,-303.4 V 0 H 176.6 V -303.4 H 480 m 32,-32 H 144.6 V 32 H 512 Z"
     style="fill:none;stroke-width:1;stroke:none;stroke-opacity:1;fill-opacity:1" /><rect
     style="fill:#88aa00;fill-opacity:1;stroke-width:13.25270939"
     id="rect59-1"
     width="33.714287"
     height="33.714287"
     x="337.09048"
     y="-287.04929" /><rect
     style="fill:#88aa00;fill-opacity:1;stroke-width:13.25270939"
     id="rect59-10"
     width="33.714287"
     height="33.714287"
     x="172.85716"
     y="-283.14288" /><rect
     style="fill:#88aa00;fill-opacity:1;stroke-width:37.91859436"
     id="rect59-10-7"
     width="276.00003"
     height="33.714287"
     x="175.14287"
     y="-170.00002" /><rect
     style="fill:#88aa00;fill-opacity:1;stroke-width:37.91859436"
     id="rect59-10-7-9"
     width="276.00003"
     height="33.714287"
     x="175.14285"
     y="-115.14287" /><rect
     style="fill:#88aa00;fill-opacity:1;stroke-width:43.748909"
     id="rect59-10-7-8"
     width="367.39999"
     height="33.714287"
     x="144.60001"
     y="-1.7142868" /><rect
     style="fill:#88aa00;fill-opacity:1;stroke-width:42.98212814"
     id="rect59-10-7-8-9"
     width="32.542828"
     height="367.39999"
     x="479.45718"
     y="-335.39999" /></g>
<g
   id="g14"
   transform="translate(0,-480)">
</g>
<g
   id="g16"
   transform="translate(0,-480)">
</g>
<g
   id="g18"
   transform="translate(0,-480)">
</g>
<g
   id="g20"
   transform="translate(0,-480)">
</g>
<g
   id="g22"
   transform="translate(0,-480)">
</g>
<g
   id="g24"
   transform="translate(0,-480)">
</g>
<g
   id="g26"
   transform="translate(0,-480)">
</g>
<g
   id="g28"
   transform="translate(0,-480)">
</g>
<g
   id="g30"
   transform="translate(0,-480)">
</g>
<g
   id="g32"
   transform="translate(0,-480)">
</g>
<g
   id="g34"
   transform="translate(0,-480)">
</g>
<g
   id="g36"
   transform="translate(0,-480)">
</g>
<g
   id="g38"
   transform="translate(0,-480)">
</g>
<g
   id="g40"
   transform="translate(0,-480)">
</g>
<g
   id="g42"
   transform="translate(0,-480)">
</g>
</svg>