<?xml version="1.0" encoding="UTF-8" standalone="no"?>
<svg
   width="128"
   height="128"
   viewBox="0 0 128 128"
   fill="none"
   version="1.1"
   id="svg29"
   sodipodi:docname="RequestFlowLogo.svg"
   inkscape:version="1.1 (c68e22c387, 2021-05-23)"
   inkscape:export-filename="D:\developpement\libs\BleachUICpp\RequestFlowApp\design\RequestFlowLogo-1024png"
   inkscape:export-xdpi="767.97235"
   inkscape:export-ydpi="767.97235"
   xmlns:inkscape="http://www.inkscape.org/namespaces/inkscape"
   xmlns:sodipodi="http://sodipodi.sourceforge.net/DTD/sodipodi-0.dtd"
   xmlns="http://www.w3.org/2000/svg"
   xmlns:svg="http://www.w3.org/2000/svg">
  <sodipodi:namedview
     id="namedview31"
     pagecolor="#505050"
     bordercolor="#555555"
     borderopacity="1"
     inkscape:pageshadow="0"
     inkscape:pageopacity="0"
     inkscape:pagecheckerboard="1"
     showgrid="false"
     inkscape:zoom="4"
     inkscape:cx="46.875"
     inkscape:cy="67.375"
     inkscape:window-width="1920"
     inkscape:window-height="1027"
     inkscape:window-x="-8"
     inkscape:window-y="-8"
     inkscape:window-maximized="1"
     inkscape:current-layer="layer4"
     showguides="true"
     inkscape:guide-bbox="true">
    <sodipodi:guide
       position="156.97771,64.006836"
       orientation="0,-1"
       id="guide1203" />
    <sodipodi:guide
       position="63.993164,83.098719"
       orientation="1,0"
       id="guide1205" />
    <sodipodi:guide
       position="137.17872,119.51472"
       orientation="0,-1"
       id="guide1207" />
    <sodipodi:guide
       position="147.43177,7.7918461"
       orientation="0,-1"
       id="guide1209" />
    <sodipodi:guide
       position="8.1317281,64.006836"
       orientation="1,0"
       id="guide1211" />
    <sodipodi:guide
       position="120.20815,74.613438"
       orientation="1,0"
       id="guide1213" />
    <sodipodi:guide
       position="4.065864,68.691419"
       orientation="1,0"
       id="guide1212" />
    <sodipodi:guide
       position="87.125,124"
       orientation="0,-1"
       id="guide1214" />
    <sodipodi:guide
       position="123.98676,42.550565"
       orientation="1,0"
       id="guide1216" />
    <sodipodi:guide
       position="94.5,3.9999998"
       orientation="0,-1"
       id="guide1218" />
  </sodipodi:namedview>
  <defs
     id="defs27">
    <clipPath
       id="clip0">
      <rect
         width="42"
         height="42"
         fill="#555555"
         id="rect24"
         x="0"
         y="0" />
    </clipPath>
  </defs>
  <g
     inkscape:groupmode="layer"
     id="layer1"
     inkscape:label="Layer 1"
     style="display:none">
    <circle
       style="fill:#555555;fill-opacity:1;fill-rule:evenodd;stroke-linecap:square;stroke-linejoin:round"
       id="path855"
       cx="64"
       cy="64"
       r="64" />
  </g>
  <g
     inkscape:groupmode="layer"
     id="layer3"
     inkscape:label="Layer 3"
     style="display:none">
    <rect
       style="fill:#555555;fill-opacity:1;fill-rule:evenodd;stroke-linecap:square;stroke-linejoin:round"
       id="rect865"
       width="128"
       height="128"
       x="0"
       y="0"
       ry="16"
       rx="16" />
  </g>
  <g
     inkscape:groupmode="layer"
     id="layer4"
     inkscape:label="Layer 4"
     style="display:inline">
    <path
       d="M 17.6178,34.9476 16.9001,33.6306 33.8775,24.3853 24.136,8.43956 7.79976,17.8476 7.05127,16.5478 24.6542,6.41006 35.9797,24.9493 Z"
       fill="#6d6d6d"
       id="path2"
       style="display:inline;fill:#555555;fill-opacity:1"
       transform="matrix(3.0476899,0,0,3.0476191,-0.00297626,0)" />
    <path
       d="M 39.9916,7.65456 C 39.2806,7.40557 38.502,7.43319 37.8104,7.73194 37.1188,8.03069 36.565,8.5787 36.2589,9.26705 l -3.0232,-0.6255 c -0.0491,0.35755 -0.1202,0.71173 -0.213,1.0605 -0.0165,0.0635 -0.0338,0.12575 -0.0518,0.18675 l 3.03,0.627 c 0.0054,0.5491 0.1615,1.0862 0.4511,1.5528 0.2897,0.4665 0.7018,0.8446 1.1916,1.093 0.4897,0.2485 1.0382,0.3577 1.5858,0.3159 0.5475,-0.0419 1.0731,-0.2332 1.5194,-0.5532 0.4462,-0.32 0.7961,-0.7563 1.0115,-1.2615 0.2154,-0.5051 0.288,-1.0597 0.2099,-1.6033 C 41.8921,9.51596 41.6663,9.00426 41.3174,8.58019 40.9685,8.15611 40.5099,7.83594 39.9916,7.65456 Z m 0.633,3.40274 c -0.1127,0.3221 -0.3185,0.6035 -0.5912,0.8086 -0.2726,0.2052 -0.6001,0.3248 -0.9408,0.3438 -0.3407,0.0191 -0.6794,-0.0634 -0.9732,-0.2369 -0.2938,-0.1735 -0.5296,-0.4303 -0.6775,-0.7378 -0.1479,-0.3075 -0.2012,-0.652 -0.1533,-0.9899 0.0479,-0.33783 0.195,-0.65388 0.4226,-0.90814 0.2276,-0.25427 0.5254,-0.43532 0.8559,-0.52025 0.3305,-0.08494 0.6788,-0.06994 1.0008,0.04309 0.4314,0.15146 0.785,0.46798 0.9831,0.88004 0.1982,0.41206 0.2247,0.88596 0.0736,1.31746 z"
       fill="#6d6d6d"
       id="path4"
       style="display:inline;fill:#555555;fill-opacity:1"
       transform="matrix(3.0476899,0,0,3.0476191,-0.00297626,0)" />
    <path
       d="m 22.4981,18.7978 c -0.3187,-0.1114 -0.654,-0.1675 -0.9915,-0.1657 -0.5323,0 -1.055,0.1417 -1.5144,0.4104 -0.4595,0.2687 -0.8391,0.6549 -1.1001,1.1188 l -2.7922,-0.8625 -0.0457,0.1793 c -0.0934,0.3515 -0.2078,0.6972 -0.3428,1.035 l 2.808,0.8632 c -0.0474,0.5592 0.0631,1.1204 0.3187,1.62 0.2557,0.4995 0.6464,0.9173 1.1276,1.2059 0.4813,0.2886 1.0338,0.4365 1.5949,0.4268 0.561,-0.0097 1.1081,-0.1766 1.5791,-0.4817 0.471,-0.3051 0.8469,-0.7362 1.0851,-1.2443 0.2383,-0.5081 0.3292,-1.0728 0.2625,-1.63 -0.0667,-0.5572 -0.2883,-1.0846 -0.6397,-1.5221 -0.3513,-0.4375 -0.8184,-0.7677 -1.348,-0.9531 z m 0.6359,3.4005 c -0.1045,0.2987 -0.2893,0.5629 -0.534,0.7637 -0.2447,0.2007 -0.5399,0.3303 -0.8533,0.3744 -0.3134,0.0442 -0.6329,0.0013 -0.9235,-0.124 -0.2906,-0.1252 -0.5412,-0.3281 -0.7243,-0.5862 -0.1831,-0.2582 -0.2916,-0.5618 -0.3137,-0.8775 -0.0221,-0.3157 0.0431,-0.6314 0.1885,-0.9126 0.1453,-0.2811 0.3652,-0.5169 0.6356,-0.6814 0.2704,-0.1645 0.5808,-0.2515 0.8973,-0.2514 0.1941,-1e-4 0.3869,0.0329 0.57,0.0975 0.4315,0.1513 0.7853,0.4678 0.9836,0.8799 0.1983,0.412 0.2249,0.886 0.0738,1.3176 z"
       fill="#6d6d6d"
       id="path6"
       style="display:inline;fill:#555555;fill-opacity:1"
       transform="matrix(3.0476899,0,0,3.0476191,-0.00297626,0)" />
    <path
       d="m 30.6714,36.168 c -0.6362,-0.2236 -1.3292,-0.226 -1.967,-0.0069 -0.6378,0.2191 -1.183,0.647 -1.5474,1.2144 l -1.8487,-0.6907 c -0.121,0.4082 -0.273,0.8066 -0.4545,1.1917 l 1.8569,0.6938 c -0.0817,0.5628 -0.0018,1.1373 0.2305,1.6564 0.2322,0.5192 0.6073,0.9616 1.0814,1.2758 0.4741,0.3141 1.0278,0.487 1.5964,0.4984 0.5686,0.0115 1.1288,-0.1389 1.6152,-0.4336 0.4864,-0.2948 0.879,-0.7217 1.132,-1.2311 0.253,-0.5093 0.3561,-1.0801 0.2971,-1.6458 -0.059,-0.5657 -0.2776,-1.1029 -0.6302,-1.5491 -0.3527,-0.4462 -0.8249,-0.783 -1.3617,-0.971 z m 0.636,3.4013 c -0.1128,0.322 -0.3185,0.6033 -0.5912,0.8083 -0.2727,0.2051 -0.6001,0.3247 -0.9407,0.3437 -0.3407,0.019 -0.6793,-0.0635 -0.9731,-0.2369 -0.2938,-0.1735 -0.5295,-0.4302 -0.6774,-0.7376 -0.1479,-0.3075 -0.2013,-0.6519 -0.1535,-0.9897 0.0478,-0.3378 0.1948,-0.6539 0.4222,-0.9082 0.2275,-0.2543 0.5252,-0.4354 0.8556,-0.5205 0.3304,-0.085 0.6786,-0.0702 1.0006,0.0426 0.4317,0.1513 0.7857,0.4679 0.984,0.8801 0.1983,0.4123 0.2247,0.8864 0.0735,1.3182 z"
       fill="#6d6d6d"
       id="path8"
       style="display:inline;fill:#555555;fill-opacity:1"
       transform="matrix(3.0476899,0,0,3.0476191,-0.00297626,0)" />
    <path
       fill-rule="evenodd"
       clip-rule="evenodd"
       d="M 8.87838,33.7253 H 5.92418 C 5.76184,33.0212 5.35078,32.3993 4.76657,31.974 4.18237,31.5487 3.46428,31.3485 2.7443,31.4103 2.02433,31.4721 1.35086,31.7918 0.8477,32.3104 0.34454,32.8291 0.0455052,33.512 0.00556511,34.2335 -0.0343749,34.955 0.187464,35.6667 0.630303,36.2378 c 0.442837,0.571 1.076917,0.963 1.785667,1.1039 0.70875,0.1409 1.44455,0.0213 2.07213,-0.3369 0.62758,-0.3583 1.10476,-0.931 1.34384,-1.613 0.03645,-0.1036 0.067,-0.2093 0.09149,-0.3165 h 2.9707 C 8.85249,34.6265 8.84723,34.175 8.87838,33.7253 Z m -4.24942,1.245 c -0.012,0.034 -0.02475,0.067 -0.03825,0.099 C 4.41529,35.4847 4.08354,35.8145 3.6671,35.9874 3.25066,36.1603 2.78294,36.1625 2.36489,35.9935 1.94685,35.8245 1.61203,35.4979 1.43272,35.0842 1.25341,34.6704 1.24399,34.2028 1.40649,33.7822 1.569,33.3616 1.89039,33.0217 2.30129,32.836 c 0.4109,-0.1856 0.87834,-0.2023 1.3014,-0.0463 0.42307,0.156 0.76782,0.4721 0.95983,0.8801 0.19201,0.408 0.21587,0.8751 0.06644,1.3005 z"
       fill="#6d6d6d"
       id="path10"
       style="display:inline;fill:#555555;fill-opacity:1"
       transform="matrix(3.0476899,0,0,3.0476191,-0.00297626,0)" />
    <path
       d="M 8.49279,0.169314 C 7.74724,-0.0734659 6.93628,-0.0147035 6.23352,0.33302 5.53076,0.680743 4.99206,1.28979 4.73276,2.02976 c -0.2593,0.73998 -0.21859,1.55206 0.11341,2.2624 0.33199,0.71033 0.92889,1.26245 1.6629,1.53815 0.10394,0.03647 0.20986,0.06701 0.31725,0.0915 v 2.3715 C 7.02506,8.27981 7.22456,8.27306 7.4203,8.27306 c 0.25125,0 0.504,0.01125 0.75599,0.033 V 5.92256 C 8.80922,5.77592 9.37744,5.42775 9.7955,4.93043 10.2136,4.4331 10.4589,3.8135 10.4946,3.16477 10.5303,2.51604 10.3544,1.87326 9.9934,1.33308 9.63241,0.792896 9.10581,0.384505 8.49279,0.169314 Z M 9.12502,3.56981 C 8.99354,3.94664 8.73546,4.26621 8.39476,4.47407 8.05407,4.68194 7.65184,4.76523 7.25661,4.70976 6.86139,4.65429 6.49763,4.46349 6.22731,4.16987 5.957,3.87625 5.79686,3.49798 5.77418,3.09952 5.7515,2.70106 5.86769,2.30707 6.10294,1.98467 6.3382,1.66228 6.67796,1.43143 7.06434,1.33148 7.45072,1.23152 7.8598,1.26864 8.22188,1.4365 8.58396,1.60437 8.87663,1.89259 9.05002,2.25206 9.24872,2.664 9.2757,3.13799 9.12502,3.56981 Z"
       fill="#6d6d6d"
       id="path12"
       style="display:inline;fill:#555555;fill-opacity:1"
       transform="matrix(3.0476899,0,0,3.0476191,-0.00297626,0)" />
  </g>
  <g
     inkscape:groupmode="layer"
     id="layer2"
     inkscape:label="Layer 2"
     style="display:inline">
    <g
       clip-path="url(#clip0)"
       id="g22"
       transform="matrix(3.0476899,0,0,3.0476191,-0.00297626,0)">
      <path
         d="m 31.7635,8.33634 c -0.0417,0.33215 -0.1056,0.66114 -0.1913,0.98475 -0.0232,0.0885 -0.048,0.17551 -0.075,0.26251 -0.0195,0.06674 -0.0405,0.13275 -0.0622,0.198 -0.0338,0.1005 -0.0698,0.20025 -0.1072,0.3 -0.0375,0.0997 -0.075,0.195 -0.1178,0.291 -0.0625,0.144 -0.1287,0.2852 -0.1987,0.4237 -0.0705,0.138 -0.1448,0.2738 -0.225,0.4058 -0.2067,0.3503 -0.442,0.683 -0.7035,0.9945 -0.0653,0.075 -0.1313,0.15 -0.1995,0.225 l -0.1028,0.1102 -0.105,0.108 c -0.0705,0.0713 -0.1425,0.141 -0.2152,0.2093 -0.0728,0.0682 -0.15,0.135 -0.225,0.2002 -1.2633,1.0838 -2.8541,1.7116 -4.5171,1.7828 -1.6629,0.0711 -3.3015,-0.4186 -4.6527,-1.3905 -1.3513,-0.972 -2.3368,-2.3697 -2.7983,-3.96893 -0.4615,-1.59922 -0.3723,-3.30714 0.2533,-4.84958 0.039,-0.1 0.0802,-0.196 0.1237,-0.288 0.0645,-0.142 0.1335,-0.28125 0.207,-0.41775 0.048,-0.09075 0.099,-0.18 0.15,-0.2685 0.3092,-0.52461 0.6823,-1.00881 1.1108,-1.4415 0.0705,-0.075 0.1425,-0.14175 0.216,-0.21 0.0735,-0.06825 0.15,-0.135 0.2249,-0.20025 0.15,-0.12975 0.3083,-0.25425 0.4695,-0.375 0.081,-0.0585 0.162,-0.1155 0.2453,-0.171 0.0825,-0.0555 0.1665,-0.10875 0.2512,-0.16125 0.128,-0.078 0.258,-0.153004 0.39,-0.225004 0.3083,-0.164498 0.6278,-0.306858 0.9563,-0.426001 0.0937,-0.03375 0.189,-0.066 0.2842,-0.09675 1.1863,-0.3764926 2.4482,-0.448729 3.6697,-0.21007 1.2215,0.23866 2.3634,0.780558 3.3208,1.575885 0.9574,0.79532 1.6994,1.81854 2.158,2.97561 0.4586,1.15706 0.6189,2.41085 0.4663,3.64608 z"
         fill="#17a0ed"
         id="path14" />
      <path
         d="m 14.6615,18.8572 c -0.0187,0.0795 -0.0382,0.1583 -0.0592,0.2378 -0.0878,0.3323 -0.1986,0.658 -0.3315,0.975 -0.03,0.075 -0.0615,0.1455 -0.0945,0.2175 -0.0645,0.142 -0.1335,0.2812 -0.207,0.4177 -0.0487,0.0908 -0.099,0.18 -0.15,0.2685 -0.075,0.132 -0.1605,0.2618 -0.246,0.3885 -0.114,0.168 -0.2347,0.3315 -0.3615,0.489 -0.063,0.0788 -0.1282,0.156 -0.1942,0.2318 -0.0503,0.057 -0.1005,0.1125 -0.15,0.168 -0.0495,0.0555 -0.1035,0.1095 -0.156,0.1627 -0.0353,0.036 -0.0713,0.0713 -0.1073,0.1058 -0.143,0.1405 -0.293,0.274 -0.45,0.4005 -0.075,0.0637 -0.1552,0.126 -0.2355,0.186 -0.0802,0.06 -0.1597,0.1192 -0.2415,0.1762 -0.081,0.057 -0.1642,0.1125 -0.2475,0.1665 -0.084,0.054 -0.1687,0.1058 -0.2549,0.156 l -0.1298,0.075 c -0.1305,0.0725 -0.263,0.1415 -0.3975,0.207 -0.09,0.0428 -0.1815,0.0848 -0.273,0.1245 -0.1372,0.06 -0.2767,0.1155 -0.41697,0.1665 -0.28303,0.1028 -0.57206,0.1882 -0.86549,0.2558 -0.0975,0.0232 -0.19575,0.0435 -0.29474,0.0622 -0.4503,0.0848 -0.90752,0.1275 -1.36573,0.1275 -0.2355,0 -0.47249,-0.0112 -0.70949,-0.0345 C 6.64718,24.582 6.57219,24.5737 6.49719,24.5632 6.48686,24.5627 6.47659,24.5614 6.46644,24.5595 6.39894,24.5512 6.33069,24.5415 6.26244,24.5302 6.01795,24.4912 5.77345,24.4395 5.52895,24.375 3.62539,23.8717 1.99969,22.6329 1.0094,20.931 0.0191104,19.2292 -0.254661,17.2037 0.248299,15.3 c 0.041499,-0.156 0.087248,-0.3095 0.137247,-0.4605 0.03375,-0.1005 0.069749,-0.2003 0.107249,-0.3 0.037499,-0.0998 0.074998,-0.195 0.117747,-0.291 0.183697,-0.4261 0.407178,-0.8339 0.667488,-1.218 0.0855,-0.126 0.17475,-0.2498 0.26775,-0.3698 0.06149,-0.0802 0.12524,-0.159 0.18974,-0.2362 0.03225,-0.0383 0.0645,-0.075 0.0975,-0.1133 0.033,-0.0375 0.066,-0.075 0.09975,-0.111 0.0675,-0.075 0.13575,-0.15 0.20549,-0.216 l 0.00451,-0.0045 c 0.03524,-0.036 0.07049,-0.075 0.10649,-0.1057 0.144,-0.14 0.294,-0.2735 0.44999,-0.4005 0.075,-0.0638 0.15525,-0.126 0.2355,-0.186 0.08025,-0.06 0.15975,-0.1193 0.2415,-0.1763 0.08174,-0.0577 0.16424,-0.1132 0.24824,-0.1665 0.084,-0.0532 0.16875,-0.1057 0.255,-0.156 l 0.12975,-0.075 c 0.13149,-0.073 0.26424,-0.142 0.39824,-0.207 0.09,-0.0435 0.18074,-0.0847 0.27224,-0.1245 0.06825,-0.03 0.138,-0.0585 0.20775,-0.0862 0.06975,-0.0278 0.1395,-0.0548 0.21,-0.0803 C 5.18027,10.1131 5.46905,10.0277 5.7622,9.95998 5.86045,9.93673 5.9587,9.91648 6.05769,9.89773 6.31268,9.84965 6.57004,9.8151 6.82868,9.79423 c 0.1965,-0.01575 0.39524,-0.024 0.59399,-0.024 0.2355,0 0.47224,0.0115 0.71024,0.0345 h 0.0105 l 0.03525,0.00375 0.096,0.0105 0.09599,0.012 c 0.0795,0.00975 0.15825,0.02175 0.23775,0.0345 0.23849,0.038 0.47699,0.088 0.71549,0.15002 1.86321,0.4928 3.46181,1.6908 4.45791,3.3408 0.9961,1.6499 1.3116,3.6226 0.8797,5.5009 z"
         fill="#8ac926"
         id="path16" />
      <path
         d="m 41.5995,26.4322 c -0.3894,1.4699 -1.2529,2.7702 -2.4566,3.6992 -1.2038,0.9291 -2.6805,1.4349 -4.201,1.439 -0.5988,-3e-4 -1.195,-0.0782 -1.7738,-0.2317 -1.3196,-0.3484 -2.5063,-1.0803 -3.4099,-2.1032 -0.9036,-1.0228 -1.4836,-2.2907 -1.6666,-3.6433 -0.183,-1.3525 0.0393,-2.7289 0.6386,-3.9552 0.5994,-1.2262 1.549,-2.2471 2.7286,-2.9336 1.1796,-0.6864 2.5364,-1.0076 3.8986,-0.9229 1.3622,0.0847 2.6687,0.5715 3.7542,1.3988 1.0855,0.8273 1.9013,1.958 2.3441,3.249 0.4429,1.291 0.4929,2.6844 0.1438,4.0039 z"
         fill="#eb3743"
         id="path18" />
      <path
         d="m 23.9283,36.0511 -0.0293,0.1072 c -0.4663,1.6491 -1.5295,3.0656 -2.9828,3.9738 -1.4532,0.9083 -3.1924,1.2432 -4.879,0.9396 -1.6866,-0.3036 -3.1998,-1.2239 -4.2452,-2.5819 -1.0453,-1.3579 -1.5479,-3.0563 -1.41,-4.7645 0.0342,-0.4053 0.1037,-0.8068 0.2078,-1.2 0.499,-1.7333 1.657,-3.2022 3.2258,-4.0923 1.5688,-0.89 3.4237,-1.1303 5.1675,-0.6695 1.7439,0.4609 3.2379,1.5863 4.1622,3.1351 0.9243,1.5489 1.2054,3.3982 0.783,5.1517 z"
         fill="#ffca3a"
         id="path20" />
    </g>
  </g>
</svg>
