<?xml version="1.0" encoding="UTF-8" standalone="no"?>
<svg
   width="24"
   height="24"
   viewBox="0 0 24 24"
   fill="none"
   version="1.1"
   id="svg13"
   sodipodi:docname="assertion.svg"
   inkscape:version="1.1 (c68e22c387, 2021-05-23)"
   xmlns:inkscape="http://www.inkscape.org/namespaces/inkscape"
   xmlns:sodipodi="http://sodipodi.sourceforge.net/DTD/sodipodi-0.dtd"
   xmlns="http://www.w3.org/2000/svg"
   xmlns:svg="http://www.w3.org/2000/svg">
  <sodipodi:namedview
     id="namedview15"
     pagecolor="#505050"
     bordercolor="#000000"
     borderopacity="1"
     inkscape:pageshadow="0"
     inkscape:pageopacity="0"
     inkscape:pagecheckerboard="1"
     showgrid="false"
     inkscape:zoom="35.083333"
     inkscape:cx="11.985748"
     inkscape:cy="12.15677"
     inkscape:window-width="1920"
     inkscape:window-height="1027"
     inkscape:window-x="-8"
     inkscape:window-y="-8"
     inkscape:window-maximized="1"
     inkscape:current-layer="svg13" />
  <g
     clip-path="url(#clip0)"
     id="g6"
     style="stroke:#000000;stroke-opacity:1;stroke-width:1;stroke-miterlimit:4;stroke-dasharray:none;stroke-dashoffset:0;stroke-linejoin:round;stroke-linecap:square">
    <path
       d="M6.75 11.053L9.2 14.534C9.29307 14.6726 9.41787 14.787 9.56403 14.8678C9.71018 14.9485 9.87349 14.9932 10.0404 14.9982C10.2073 15.0032 10.373 14.9683 10.5237 14.8964C10.6744 14.8246 10.8058 14.7178 10.907 14.585L18.75 4.65796"
       stroke="white"
       stroke-width="1.8"
       stroke-linecap="round"
       stroke-linejoin="round"
       id="path2"
       style="stroke:#000000;stroke-opacity:1;stroke-width:1;stroke-miterlimit:4;stroke-dasharray:none;stroke-dashoffset:0;stroke-linejoin:round;stroke-linecap:square" />
    <path
       d="M3 0.748962C2.60218 0.748962 2.22064 0.906998 1.93934 1.1883C1.65804 1.46961 1.5 1.85114 1.5 2.24896V11.249C1.5 16.062 8.734 21.418 11.193 23.009C11.433 23.1655 11.7134 23.2489 12 23.2489C12.2866 23.2489 12.567 23.1655 12.807 23.009C15.266 21.418 22.5 16.062 22.5 11.249V2.24896C22.5 2.05198 22.4612 1.85693 22.3858 1.67494C22.3104 1.49295 22.1999 1.32759 22.0607 1.1883C21.9214 1.04901 21.756 0.938525 21.574 0.863143C21.392 0.787761 21.197 0.748962 21 0.748962H3Z"
       stroke="white"
       stroke-width="1.8"
       stroke-linecap="round"
       stroke-linejoin="round"
       id="path4"
       style="stroke:#000000;stroke-opacity:1;stroke-width:1;stroke-miterlimit:4;stroke-dasharray:none;stroke-dashoffset:0;stroke-linejoin:round;stroke-linecap:square" />
  </g>
  <defs
     id="defs11">
    <clipPath
       id="clip0">
      <rect
         width="24"
         height="24"
         fill="white"
         id="rect8" />
    </clipPath>
  </defs>
</svg>
