<?xml version="1.0" encoding="UTF-8" standalone="no"?>
<svg
   width="24"
   height="24"
   viewBox="0 0 24 24"
   fill="none"
   version="1.1"
   id="svg6"
   sodipodi:docname="external.svg"
   inkscape:version="1.1 (c68e22c387, 2021-05-23)"
   xmlns:inkscape="http://www.inkscape.org/namespaces/inkscape"
   xmlns:sodipodi="http://sodipodi.sourceforge.net/DTD/sodipodi-0.dtd"
   xmlns="http://www.w3.org/2000/svg"
   xmlns:svg="http://www.w3.org/2000/svg">
  <defs
     id="defs10" />
  <sodipodi:namedview
     id="namedview8"
     pagecolor="#505050"
     bordercolor="#ffffff"
     borderopacity="1"
     inkscape:pageshadow="0"
     inkscape:pageopacity="0"
     inkscape:pagecheckerboard="1"
     showgrid="false"
     inkscape:zoom="35.083333"
     inkscape:cx="11.985748"
     inkscape:cy="11.985748"
     inkscape:window-width="1920"
     inkscape:window-height="1027"
     inkscape:window-x="-8"
     inkscape:window-y="-8"
     inkscape:window-maximized="1"
     inkscape:current-layer="svg6" />
  <path
     d="M9.4688 18.1677L8.58858 19.0479C7.79155 19.8449 6.71054 20.2927 5.58336 20.2927C4.45618 20.2927 3.37517 19.8449 2.57814 19.0479C1.7811 18.2508 1.33333 17.1698 1.33333 16.0427C1.33333 14.9155 1.7811 13.8345 2.57814 13.0374L7.08597 8.52865C7.84173 7.77118 8.85541 7.32666 9.92458 7.28386C10.9937 7.24106 12.0397 7.60313 12.8536 8.29777C13.6675 8.99242 14.1894 9.9685 14.3151 11.0311C14.4409 12.0937 14.1611 13.1647 13.5318 14.03"
     stroke="white"
     stroke-width="1.8"
     stroke-linecap="round"
     stroke-linejoin="round"
     id="path2"
     style="stroke:#000000;stroke-opacity:1" />
  <path
     d="M14.6198 5.95314L15.3281 5.2448C16.1252 4.44777 17.2062 4 18.3334 4C19.4605 4 20.5415 4.44777 21.3386 5.2448C22.1356 6.04184 22.5834 7.12285 22.5834 8.25003C22.5834 9.3772 22.1356 10.4582 21.3386 11.2552L16.8307 15.7631C16.0748 16.5202 15.0611 16.9644 13.9921 17.007C12.923 17.0495 11.8772 16.6873 11.0636 15.9926C10.2499 15.2979 9.72812 14.3219 9.60249 13.2593C9.47687 12.1968 9.75661 11.126 10.3859 10.2607"
     stroke="white"
     stroke-width="1.8"
     stroke-linecap="round"
     stroke-linejoin="round"
     id="path4"
     style="stroke:#000000;stroke-opacity:1" />
</svg>
