<?xml version="1.0" encoding="UTF-8" standalone="no"?>
<svg
   width="24"
   height="24"
   viewBox="0 0 24 24"
   fill="none"
   version="1.1"
   id="svg15"
   sodipodi:docname="payload.svg"
   inkscape:version="1.1 (c68e22c387, 2021-05-23)"
   xmlns:inkscape="http://www.inkscape.org/namespaces/inkscape"
   xmlns:sodipodi="http://sodipodi.sourceforge.net/DTD/sodipodi-0.dtd"
   xmlns="http://www.w3.org/2000/svg"
   xmlns:svg="http://www.w3.org/2000/svg">
  <sodipodi:namedview
     id="namedview17"
     pagecolor="#505050"
     bordercolor="#ffffff"
     borderopacity="1"
     inkscape:pageshadow="0"
     inkscape:pageopacity="0"
     inkscape:pagecheckerboard="1"
     showgrid="false"
     inkscape:zoom="35.083333"
     inkscape:cx="11.985748"
     inkscape:cy="15.178147"
     inkscape:window-width="1920"
     inkscape:window-height="1027"
     inkscape:window-x="-8"
     inkscape:window-y="-8"
     inkscape:window-maximized="1"
     inkscape:current-layer="svg15" />
  <g
     clip-path="url(#clip0)"
     id="g8"
     transform="translate(0,-0.02850356)"
     style="fill-opacity:1;fill:none;stroke:#000000;stroke-opacity:1">
    <path
       d="m 0.75,5.25098 c 0,1.19347 1.18526,2.33806 3.29505,3.18198 C 6.15483,9.27687 9.01631,9.75098 12,9.75098 c 2.9837,0 5.8452,-0.47411 7.955,-1.31802 C 22.0647,7.58904 23.25,6.44445 23.25,5.25098 23.25,4.0575 22.0647,2.91291 19.955,2.069 17.8452,1.22508 14.9837,0.750977 12,0.750977 9.01631,0.750977 6.15483,1.22508 4.04505,2.069 1.93526,2.91291 0.75,4.0575 0.75,5.25098 Z"
       stroke="#ffffff"
       stroke-width="1.8"
       stroke-linecap="round"
       stroke-linejoin="round"
       id="path2"
       style="fill-opacity:1;fill:none;stroke:#000000;stroke-opacity:1" />
    <path
       d="M 0.75,5.25098 V 12 c 0,2.485 5.037,4.5 11.25,4.5 6.213,0 11.25,-2.014 11.25,-4.5 V 5.25098"
       stroke="#ffffff"
       stroke-width="1.8"
       stroke-linecap="round"
       stroke-linejoin="round"
       id="path4"
       style="fill-opacity:1;fill:none;stroke:#000000;stroke-opacity:1" />
    <path
       d="m 0.75,12 v 6.75 c 0,2.485 5.037,4.5 11.25,4.5 6.213,0 11.25,-2.015 11.25,-4.5 V 12"
       stroke="#ffffff"
       stroke-width="1.8"
       stroke-linecap="round"
       stroke-linejoin="round"
       id="path6"
       style="fill-opacity:1;fill:none;stroke:#000000;stroke-opacity:1" />
  </g>
  <defs
     id="defs13">
    <clipPath
       id="clip0">
      <rect
         width="24"
         height="24"
         fill="white"
         id="rect10" />
    </clipPath>
  </defs>
</svg>
