<?xml version="1.0" encoding="UTF-8" standalone="no"?>
<svg
   viewBox="0 0 24 24"
   version="1.1"
   id="svg8"
   sodipodi:docname="broom.svg"
   inkscape:version="1.1 (c68e22c387, 2021-05-23)"
   xmlns:inkscape="http://www.inkscape.org/namespaces/inkscape"
   xmlns:sodipodi="http://sodipodi.sourceforge.net/DTD/sodipodi-0.dtd"
   xmlns="http://www.w3.org/2000/svg"
   xmlns:svg="http://www.w3.org/2000/svg">
  <defs
     id="defs12" />
  <sodipodi:namedview
     id="namedview10"
     pagecolor="#505050"
     bordercolor="#ffffff"
     borderopacity="1"
     inkscape:pageshadow="0"
     inkscape:pageopacity="0"
     inkscape:pagecheckerboard="1"
     showgrid="false"
     inkscape:zoom="35.083333"
     inkscape:cx="11.985748"
     inkscape:cy="11.985748"
     inkscape:window-width="1920"
     inkscape:window-height="1027"
     inkscape:window-x="-8"
     inkscape:window-y="-8"
     inkscape:window-maximized="1"
     inkscape:current-layer="svg8" />
  <g
     id="g6">
    <path
       fill="none"
       d="M0 0h24v24H0z"
       id="path2" />
    <path
       d="M16.536 15.95l2.12-2.122-3.181-3.182 3.535-3.535-2.12-2.121-3.536 3.535-3.182-3.182L8.05 7.464l8.486 8.486zM13.354 5.697l2.828-2.829a1 1 0 0 1 1.414 0l3.536 3.536a1 1 0 0 1 0 1.414l-2.829 2.828 2.475 2.475a1 1 0 0 1 0 1.415L13 22.314a1 1 0 0 1-1.414 0l-9.9-9.9a1 1 0 0 1 0-1.414l7.778-7.778a1 1 0 0 1 1.415 0l2.475 2.475z"
       id="path4"
       style="fill:#5c5c5c;fill-opacity:1" />
  </g>
</svg>
