<?xml version="1.0" encoding="UTF-8" standalone="no"?>
<svg
   xmlns:dc="http://purl.org/dc/elements/1.1/"
   xmlns:cc="http://creativecommons.org/ns#"
   xmlns:rdf="http://www.w3.org/1999/02/22-rdf-syntax-ns#"
   xmlns:svg="http://www.w3.org/2000/svg"
   xmlns="http://www.w3.org/2000/svg"
   xmlns:sodipodi="http://sodipodi.sourceforge.net/DTD/sodipodi-0.dtd"
   xmlns:inkscape="http://www.inkscape.org/namespaces/inkscape"
   height="16"
   viewBox="-48 0 12 12.00998"
   width="16"
   version="1.1"
   id="svg18"
   sodipodi:docname="broom.svg"
   inkscape:version="0.92.4 (5da689c313, 2019-01-14)">
  <metadata
     id="metadata24">
    <rdf:RDF>
      <cc:Work
         rdf:about="">
        <dc:format>image/svg+xml</dc:format>
        <dc:type
           rdf:resource="http://purl.org/dc/dcmitype/StillImage" />
        <dc:title></dc:title>
      </cc:Work>
    </rdf:RDF>
  </metadata>
  <defs
     id="defs22" />
  <sodipodi:namedview
     pagecolor="#ffffff"
     bordercolor="#666666"
     borderopacity="1"
     objecttolerance="10"
     gridtolerance="10"
     guidetolerance="10"
     inkscape:pageopacity="0"
     inkscape:pageshadow="2"
     inkscape:window-width="1920"
     inkscape:window-height="1027"
     id="namedview20"
     showgrid="false"
     units="px"
     inkscape:zoom="31.167726"
     inkscape:cx="4.2539027"
     inkscape:cy="6.5948704"
     inkscape:window-x="-8"
     inkscape:window-y="-8"
     inkscape:window-maximized="1"
     inkscape:current-layer="g12" />
  <g
     id="g34"
     transform="matrix(0.02317795,0,0,0.02317795,-46.825244,11.686088)">
    <path
       style="fill:#999999"
       inkscape:connector-curvature="0"
       id="path2"
       d="M 24.328125,-277.35495 H 394.07031 V 12.00833 H 24.328125 Z m 0,0" />
    <g
       transform="translate(0,-502.41745)"
       style="fill:#bfc9d1"
       id="g12">
      <path
         inkscape:connector-curvature="0"
         id="path4"
         d="M 124.51767,514.53337 H 92.365337 V 402.00212 c 0,-8.87109 7.203116,-16.07422 16.078113,-16.07422 8.8711,0 16.07422,7.20313 16.07422,16.07422 z m 0,0"
         style="fill:#4d4d4d" />
      <path
         inkscape:connector-curvature="0"
         id="path6"
         d="M 222.61715,514.16601 H 190.46871 V 401.63476 c 0,-8.87109 7.19922,-16.07422 16.07422,-16.07422 8.875,0 16.07422,7.20313 16.07422,16.07422 z m 0,0"
         style="fill:#4d4d4d" />
      <path
         inkscape:connector-curvature="0"
         id="path6-9"
         d="M 318.17235,514.08665 H 286.02391 V 401.55541 c 0,-8.87108 7.19922,-16.07421 16.07422,-16.07421 8.875,0 16.07422,7.20313 16.07422,16.07421 z m 0,0"
         style="fill:#4d4d4d;stroke-width:0.99999988" />
    </g>
    <path
       style="fill:#ffd42a"
       inkscape:connector-curvature="0"
       id="path14"
       d="M 418.1875,-213.05026 H 0.214844 v -64.30469 c 0,-17.76563 14.386718,-32.15234 32.152344,-32.15234 H 134.01172 l 24.16406,-60.42969 -29.35547,-29.37109 v -103.10938 h 160.75781 v 103.10938 l -29.35156,29.37109 24.16016,60.42969 h 101.64844 c 17.76171,0 32.15234,14.38671 32.15234,32.15234 z m 0,0" />
    <path
       style="fill:#aa8800"
       inkscape:connector-curvature="0"
       id="path16"
       d="m 158.17578,-369.93698 -29.35547,-29.37109 h 160.75781 l -29.35156,29.37109 z m 0,0" />
  </g>
</svg>
