<?xml version="1.0" encoding="UTF-8" standalone="no"?>
<svg
   viewBox="0 0 24 24"
   version="1.1"
   id="svg8"
   sodipodi:docname="curly_brakets.svg"
   inkscape:version="1.1 (c68e22c387, 2021-05-23)"
   xmlns:inkscape="http://www.inkscape.org/namespaces/inkscape"
   xmlns:sodipodi="http://sodipodi.sourceforge.net/DTD/sodipodi-0.dtd"
   xmlns="http://www.w3.org/2000/svg"
   xmlns:svg="http://www.w3.org/2000/svg">
  <defs
     id="defs12" />
  <sodipodi:namedview
     id="namedview10"
     pagecolor="#505050"
     bordercolor="#ffffff"
     borderopacity="1"
     inkscape:pageshadow="0"
     inkscape:pageopacity="0"
     inkscape:pagecheckerboard="1"
     showgrid="false"
     inkscape:zoom="35.083333"
     inkscape:cx="11.985748"
     inkscape:cy="11.985748"
     inkscape:window-width="1920"
     inkscape:window-height="1027"
     inkscape:window-x="-8"
     inkscape:window-y="-8"
     inkscape:window-maximized="1"
     inkscape:current-layer="svg8" />
  <g
     id="g6">
    <path
       fill="none"
       d="M0 0h24v24H0z"
       id="path2" />
    <path
       d="M4 18v-3.7a1.5 1.5 0 0 0-1.5-1.5H2v-1.6h.5A1.5 1.5 0 0 0 4 9.7V6a3 3 0 0 1 3-3h1v2H7a1 1 0 0 0-1 1v4.1A2 2 0 0 1 4.626 12 2 2 0 0 1 6 13.9V18a1 1 0 0 0 1 1h1v2H7a3 3 0 0 1-3-3zm16-3.7V18a3 3 0 0 1-3 3h-1v-2h1a1 1 0 0 0 1-1v-4.1a2 2 0 0 1 1.374-1.9A2 2 0 0 1 18 10.1V6a1 1 0 0 0-1-1h-1V3h1a3 3 0 0 1 3 3v3.7a1.5 1.5 0 0 0 1.5 1.5h.5v1.6h-.5a1.5 1.5 0 0 0-1.5 1.5z"
       id="path4"
       style="fill:#5c5c5c;fill-opacity:1" />
  </g>
</svg>
