<?xml version="1.0" encoding="UTF-8" standalone="no"?>
<!-- Created with Inkscape (http://www.inkscape.org/) -->

<svg
   xmlns:dc="http://purl.org/dc/elements/1.1/"
   xmlns:cc="http://creativecommons.org/ns#"
   xmlns:rdf="http://www.w3.org/1999/02/22-rdf-syntax-ns#"
   xmlns:svg="http://www.w3.org/2000/svg"
   xmlns="http://www.w3.org/2000/svg"
   xmlns:xlink="http://www.w3.org/1999/xlink"
   xmlns:sodipodi="http://sodipodi.sourceforge.net/DTD/sodipodi-0.dtd"
   xmlns:inkscape="http://www.inkscape.org/namespaces/inkscape"
   width="30"
   height="30"
   viewBox="0 0 7.9374998 7.9375002"
   version="1.1"
   id="svg76"
   inkscape:version="0.92.4 (5da689c313, 2019-01-14)"
   sodipodi:docname="delete_icon.svg">
  <defs
     id="defs70" />
  <sodipodi:namedview
     id="base"
     pagecolor="#ffffff"
     bordercolor="#666666"
     borderopacity="1.0"
     inkscape:pageopacity="0.0"
     inkscape:pageshadow="2"
     inkscape:zoom="15.839192"
     inkscape:cx="9.8183683"
     inkscape:cy="12.966834"
     inkscape:document-units="mm"
     inkscape:current-layer="layer1"
     showgrid="true"
     units="px"
     showguides="true"
     inkscape:guide-bbox="true"
     inkscape:window-width="1920"
     inkscape:window-height="1027"
     inkscape:window-x="-8"
     inkscape:window-y="-8"
     inkscape:window-maximized="1">
    <inkscape:grid
       type="xygrid"
       id="grid94" />
    <sodipodi:guide
       position="4.4979166,1.3229167"
       orientation="0,1"
       id="guide3799"
       inkscape:locked="false" />
  </sodipodi:namedview>
  <metadata
     id="metadata73">
    <rdf:RDF>
      <cc:Work
         rdf:about="">
        <dc:format>image/svg+xml</dc:format>
        <dc:type
           rdf:resource="http://purl.org/dc/dcmitype/StillImage" />
        <dc:title />
      </cc:Work>
    </rdf:RDF>
  </metadata>
  <g
     inkscape:label="Layer 1"
     inkscape:groupmode="layer"
     id="layer1"
     transform="translate(0,-289.06247)">
    <line
       style="fill:#ff5555;stroke:#ffffff;stroke-width:0.97024781;stroke-miterlimit:10;fill-opacity:1"
       x1="2.6615958"
       y1="294.35468"
       x2="5.4189782"
       y2="291.62231"
       id="line28" />
    <use
       x="0"
       y="0"
       xlink:href="#line28"
       id="use3816"
       transform="matrix(1,0,0,-1,0,585.97699)"
       width="100%"
       height="100%" />
    <path
       style="fill:#d40000;fill-opacity:1;stroke-width:0.01549696"
       d="m 1.4191857,295.56644 -0.62543574,-0.63975 0.94917724,-0.94348 c 0.522048,-0.5189 0.9466596,-0.9493 0.9435818,-0.95643 -0.0031,-0.007 -0.430208,-0.43655 -0.949178,-0.95424 l -0.94358104,-0.94124 0.62746404,-0.63755 0.6274641,-0.63753 0.5636142,0.56676 c 0.3099877,0.31174 0.743304,0.74227 0.962925,0.95674 l 0.3993112,0.38995 0.784033,-0.78309 c 0.4312179,-0.43069 0.8629631,-0.85988 0.9594335,-0.95376 l 0.1754008,-0.17067 0.6243607,0.63611 0.6243615,0.63611 -0.9544474,0.951 c -0.8905428,0.88734 -0.9525219,0.95254 -0.9256937,0.97371 0.015813,0.0125 0.4456828,0.43941 0.955263,0.9487 l 0.9265092,0.92597 -0.6290845,0.63513 -0.6290845,0.63513 -0.9580788,-0.95689 -0.9580782,-0.95686 -0.3735554,0.3709 c -0.2054562,0.204 -0.6385362,0.63508 -0.9624007,0.95798 l -0.5888453,0.58708 z"
       id="path3818"
       inkscape:connector-curvature="0" />
  </g>
</svg>
