<?xml version="1.0" encoding="UTF-8" standalone="no"?>
<svg
   viewBox="0 0 24 24"
   version="1.1"
   id="svg8"
   sodipodi:docname="file_close.svg"
   inkscape:version="1.1 (c68e22c387, 2021-05-23)"
   xmlns:inkscape="http://www.inkscape.org/namespaces/inkscape"
   xmlns:sodipodi="http://sodipodi.sourceforge.net/DTD/sodipodi-0.dtd"
   xmlns="http://www.w3.org/2000/svg"
   xmlns:svg="http://www.w3.org/2000/svg">
  <defs
     id="defs12" />
  <sodipodi:namedview
     id="namedview10"
     pagecolor="#505050"
     bordercolor="#ffffff"
     borderopacity="1"
     inkscape:pageshadow="0"
     inkscape:pageopacity="0"
     inkscape:pagecheckerboard="1"
     showgrid="false"
     inkscape:zoom="17.541667"
     inkscape:cx="10.175772"
     inkscape:cy="10.973872"
     inkscape:window-width="1920"
     inkscape:window-height="1027"
     inkscape:window-x="-8"
     inkscape:window-y="-8"
     inkscape:window-maximized="1"
     inkscape:current-layer="svg8" />
  <g
     id="g6">
    <path
       fill="none"
       d="M0 0h24v24H0z"
       id="path2" />
    <path
       d="M21 8v12.993A1 1 0 0 1 20.007 22H3.993A.993.993 0 0 1 3 21.008V2.992C3 2.455 3.449 2 4.002 2h10.995L21 8zm-2 1h-5V4H5v16h14V9z"
       id="path4" />
  </g>
  <path
     d="m 11.643706,21.942992 c -4.5548359,0 -8.2470313,-3.692196 -8.2470313,-8.247031 0,-4.5548355 3.6921954,-8.2470301 8.2470313,-8.2470301 4.554834,0 8.24703,3.6921946 8.24703,8.2470301 0,4.554835 -3.692196,8.247031 -8.24703,8.247031 z m 0,-9.413161 -2.3322611,-2.333085 -1.1669545,1.166955 2.3330846,2.33226 -2.3330846,2.33226 1.1669545,1.166955 2.3322611,-2.333084 2.332259,2.333084 1.166955,-1.166955 -2.333084,-2.33226 2.333084,-2.33226 -1.166955,-1.166955 z"
     id="path4-1"
     style="stroke-width:0.824703" />
</svg>
