<?xml version="1.0" encoding="UTF-8" standalone="no"?>
<svg
   height="512pt"
   viewBox="0 -43 512 512"
   width="512pt"
   version="1.1"
   id="svg12"
   sodipodi:docname="focus.svg"
   inkscape:version="1.1 (c68e22c387, 2021-05-23)"
   xmlns:inkscape="http://www.inkscape.org/namespaces/inkscape"
   xmlns:sodipodi="http://sodipodi.sourceforge.net/DTD/sodipodi-0.dtd"
   xmlns="http://www.w3.org/2000/svg"
   xmlns:svg="http://www.w3.org/2000/svg">
  <defs
     id="defs16" />
  <sodipodi:namedview
     id="namedview14"
     pagecolor="#505050"
     bordercolor="#ffffff"
     borderopacity="1"
     inkscape:pageshadow="0"
     inkscape:pageopacity="0"
     inkscape:pagecheckerboard="1"
     inkscape:document-units="pt"
     showgrid="false"
     inkscape:zoom="1.2333984"
     inkscape:cx="340.92795"
     inkscape:cy="341.73872"
     inkscape:window-width="1920"
     inkscape:window-height="1027"
     inkscape:window-x="-8"
     inkscape:window-y="-8"
     inkscape:window-maximized="1"
     inkscape:current-layer="svg12" />
  <path
     d="m16 106.667969c8.832031 0 16-7.167969 16-16v-32c0-14.699219 11.96875-26.667969 26.667969-26.667969h32c8.832031 0 16-7.167969 16-16s-7.167969-16-16-16h-32c-32.363281 0-58.667969 26.304688-58.667969 58.667969v32c0 8.832031 7.167969 16 16 16zm0 0"
     id="path2"
     style="fill:#5c5c5c;fill-opacity:1" />
  <path
     d="m453.332031 0h-32c-8.832031 0-16 7.167969-16 16s7.167969 16 16 16h32c14.699219 0 26.667969 11.96875 26.667969 26.667969v32c0 8.832031 7.167969 16 16 16s16-7.167969 16-16v-32c0-32.363281-26.304688-58.667969-58.667969-58.667969zm0 0"
     id="path4"
     style="fill:#5c5c5c;fill-opacity:1" />
  <path
     d="m58.667969 426.667969h32c8.832031 0 16-7.167969 16-16s-7.167969-16-16-16h-32c-14.699219 0-26.667969-11.96875-26.667969-26.667969v-32c0-8.832031-7.167969-16-16-16s-16 7.167969-16 16v32c0 32.363281 26.304688 58.667969 58.667969 58.667969zm0 0"
     id="path6"
     style="fill:#5c5c5c;fill-opacity:1" />
  <path
     d="m496 320c-8.832031 0-16 7.167969-16 16v32c0 14.699219-11.96875 26.667969-26.667969 26.667969h-32c-8.832031 0-16 7.167969-16 16s7.167969 16 16 16h32c32.363281 0 58.667969-26.304688 58.667969-58.667969v-32c0-8.832031-7.167969-16-16-16zm0 0"
     id="path8"
     style="fill:#5c5c5c;fill-opacity:1" />
  <path
     d="m341.332031 213.332031c0-47.058593-38.269531-85.332031-85.332031-85.332031s-85.332031 38.273438-85.332031 85.332031c0 47.0625 38.269531 85.335938 85.332031 85.335938s85.332031-38.273438 85.332031-85.335938zm-138.664062 0c0-29.394531 23.933593-53.332031 53.332031-53.332031s53.332031 23.9375 53.332031 53.332031c0 29.398438-23.933593 53.335938-53.332031 53.335938s-53.332031-23.9375-53.332031-53.335938zm0 0"
     id="path10"
     style="fill:#5c5c5c;fill-opacity:1" />
</svg>
