<?xml version="1.0" encoding="UTF-8" standalone="no"?>
<svg
   height="512pt"
   viewBox="-31 0 512 512"
   width="512pt"
   version="1.1"
   id="svg4"
   sodipodi:docname="hastag.svg"
   inkscape:version="1.1 (c68e22c387, 2021-05-23)"
   xmlns:inkscape="http://www.inkscape.org/namespaces/inkscape"
   xmlns:sodipodi="http://sodipodi.sourceforge.net/DTD/sodipodi-0.dtd"
   xmlns="http://www.w3.org/2000/svg"
   xmlns:svg="http://www.w3.org/2000/svg">
  <defs
     id="defs8" />
  <sodipodi:namedview
     id="namedview6"
     pagecolor="#505050"
     bordercolor="#ffffff"
     borderopacity="1"
     inkscape:pageshadow="0"
     inkscape:pageopacity="0"
     inkscape:pagecheckerboard="1"
     inkscape:document-units="pt"
     showgrid="false"
     inkscape:zoom="1.2333984"
     inkscape:cx="340.92795"
     inkscape:cy="341.73872"
     inkscape:window-width="1920"
     inkscape:window-height="1027"
     inkscape:window-x="-8"
     inkscape:window-y="-8"
     inkscape:window-maximized="1"
     inkscape:current-layer="svg4" />
  <path
     d="m30 316c-16.570312 0-30 13.429688-30 30 0 16.566406 13.429688 30 30 30h59l-14 106c0 16.566406 13.429688 30 30 30s30-13.433594 30-30l14-106h120l-14 106c0 16.566406 13.429688 30 30 30s30-13.433594 30-30l14-106h61c16.570312 0 30-13.433594 30-30 0-16.570312-13.429688-30-30-30h-53l16-120h67c16.570312 0 30-13.433594 30-30 0-16.570312-13.429688-30-30-30h-59l14-106c0-16.570312-13.429688-30-30-30s-30 13.429688-30 30l-14 106h-120l14-106c0-16.570312-13.429688-30-30-30s-30 13.429688-30 30l-14 106h-61c-16.570312 0-30 13.429688-30 30 0 16.566406 13.429688 30 30 30h53l-16 120zm143-120h120l-16 120h-120zm0 0"
     id="path2"
     style="fill:#5f5f5f;fill-opacity:1" />
</svg>
