<?xml version="1.0" encoding="UTF-8" standalone="no"?>
<svg
   viewBox="0 0 24 24"
   version="1.1"
   id="svg8"
   sodipodi:docname="history.svg"
   inkscape:version="1.1 (c68e22c387, 2021-05-23)"
   xmlns:inkscape="http://www.inkscape.org/namespaces/inkscape"
   xmlns:sodipodi="http://sodipodi.sourceforge.net/DTD/sodipodi-0.dtd"
   xmlns="http://www.w3.org/2000/svg"
   xmlns:svg="http://www.w3.org/2000/svg">
  <defs
     id="defs12" />
  <sodipodi:namedview
     id="namedview10"
     pagecolor="#505050"
     bordercolor="#ffffff"
     borderopacity="1"
     inkscape:pageshadow="0"
     inkscape:pageopacity="0"
     inkscape:pagecheckerboard="1"
     showgrid="false"
     inkscape:zoom="35.083333"
     inkscape:cx="11.985748"
     inkscape:cy="11.985748"
     inkscape:window-width="1920"
     inkscape:window-height="1027"
     inkscape:window-x="-8"
     inkscape:window-y="-8"
     inkscape:window-maximized="1"
     inkscape:current-layer="svg8" />
  <g
     id="g6">
    <path
       fill="none"
       d="M0 0H24V24H0z"
       id="path2" />
    <path
       d="M12 2c5.523 0 10 4.477 10 10s-4.477 10-10 10S2 17.523 2 12h2c0 4.418 3.582 8 8 8s8-3.582 8-8-3.582-8-8-8C9.536 4 7.332 5.114 5.865 6.865L8 9H2V3l2.447 2.446C6.28 3.336 8.984 2 12 2zm1 5v4.585l3.243 3.243-1.415 1.415L11 12.413V7h2z"
       id="path4"
       style="fill:#5c5c5c;fill-opacity:1" />
  </g>
</svg>
