<svg id="Capa_1" enable-background="new 0 0 512 512" height="512" viewBox="0 0 512 512" width="512" xmlns="http://www.w3.org/2000/svg"><g><g><path d="m30.673 482.006h447.85v29.994h-447.85z" fill="#adf2ff"/></g><g><path d="m239.193 419.642h242.149v29.994h-242.149z" fill="#98d5df"/></g><path d="m239.193 482.006h239.33v29.994h-239.33z" fill="#98d5df"/><g><path d="m161.382 419.91-29.733 29.727h-100.991v-100.943l29.746-29.74 85.553 15.421z" fill="#1d56bf"/><path d="m161.382 419.91-29.733 29.727h-100.978l115.286-115.262z" fill="#313ca2"/><path d="m392.416 188.925-231.034 230.985-50.483-50.471-50.495-50.485 231.034-230.985 86.333 14.641v.014z" fill="#ffb800"/><path d="m392.416 188.925-231.034 230.985-50.483-50.471 266.872-266.815z" fill="#ff9a09"/><path d="m480.416 100.943-88 87.982-50.482-50.471-50.496-50.485 87.987-87.969 50.509 50.471z" fill="#ff4b7f"/><path d="m348.956 84.006h124.439v71.385h-124.439z" fill="#ff229a" transform="matrix(.707 -.707 .707 .707 35.769 325.764)"/></g></g></svg>