<?xml version="1.0" encoding="UTF-8" standalone="no"?>
<svg
   viewBox="0 0 24 24"
   version="1.1"
   id="svg8"
   sodipodi:docname="scenario.svg"
   inkscape:version="1.1 (c68e22c387, 2021-05-23)"
   xmlns:inkscape="http://www.inkscape.org/namespaces/inkscape"
   xmlns:sodipodi="http://sodipodi.sourceforge.net/DTD/sodipodi-0.dtd"
   xmlns="http://www.w3.org/2000/svg"
   xmlns:svg="http://www.w3.org/2000/svg">
  <defs
     id="defs12" />
  <sodipodi:namedview
     id="namedview10"
     pagecolor="#505050"
     bordercolor="#ffffff"
     borderopacity="1"
     inkscape:pageshadow="0"
     inkscape:pageopacity="0"
     inkscape:pagecheckerboard="1"
     showgrid="false"
     showguides="true"
     inkscape:guide-bbox="true"
     inkscape:zoom="17.541667"
     inkscape:cx="9.4346792"
     inkscape:cy="16.788598"
     inkscape:window-width="1920"
     inkscape:window-height="1027"
     inkscape:window-x="-8"
     inkscape:window-y="-8"
     inkscape:window-maximized="1"
     inkscape:current-layer="g6">
    <sodipodi:guide
       position="4.4750594,21.976247"
       orientation="0,-1"
       id="guide928" />
    <sodipodi:guide
       position="2.023753,17.387173"
       orientation="1,0"
       id="guide930" />
    <sodipodi:guide
       position="22.004751,13.567696"
       orientation="1,0"
       id="guide932" />
    <sodipodi:guide
       position="24.598575,1.9952494"
       orientation="0,-1"
       id="guide934" />
  </sodipodi:namedview>
  <g
     id="g6">
    <path
       fill="none"
       d="M0 0H24V24H0z"
       id="path2" />
    <path
       d="m 18.901613,2.023753 c 1.741518,0 3.153019,1.4880622 3.153019,3.3240405 0,1.8359784 -1.411501,3.3240406 -3.153019,3.3240406 h -3.153019 c -1.372614,0 -2.540283,-0.9240834 -2.973297,-2.2160271 h -1.230729 c -1.156107,0 -2.1020127,0.9972121 -2.1020127,2.2160271 v 0.1894702 c 1.2254737,0.4565016 2.1020127,1.6875047 2.1020127,3.1345697 0,1.447066 -0.876539,2.678069 -2.1020127,3.13457 v 0.189472 c 0,1.218814 0.9459057,2.216026 2.1020127,2.216026 h 1.229678 c 0.433014,-1.290836 1.601734,-2.216026 2.974348,-2.216026 h 3.153019 c 1.741518,0 3.153019,1.488061 3.153019,3.32404 0,1.835978 -1.411501,3.32404 -3.153019,3.32404 h -3.153019 c -1.372614,0 -2.540283,-0.924084 -2.973297,-2.216027 h -1.230729 c -2.322724,0 -4.2040254,-1.983344 -4.2040254,-4.432053 H 5.2385298 c -1.7415175,0 -3.1530191,-1.488063 -3.1530191,-3.324042 0,-1.835978 1.4115016,-3.3240399 3.1530191,-3.3240399 h 2.1020128 c 0,-2.4487099 1.8813014,-4.432054 4.2040254,-4.432054 h 1.229678 C 13.20726,2.9489442 14.37598,2.023753 15.748594,2.023753 Z m 0,15.512189 h -3.153019 c -0.580156,0 -1.051006,0.49639 -1.051006,1.108014 0,0.611623 0.47085,1.108013 1.051006,1.108013 h 3.153019 c 0.580156,0 1.051006,-0.49639 1.051006,-1.108013 0,-0.611624 -0.47085,-1.108014 -1.051006,-1.108014 z M 8.391549,10.887861 H 5.2385298 c -0.5801555,0 -1.0510063,0.49639 -1.0510063,1.108013 0,0.611624 0.4708508,1.108014 1.0510063,1.108014 H 8.391549 c 0.5801555,0 1.0510063,-0.49639 1.0510063,-1.108014 0,-0.611623 -0.4708508,-1.108013 -1.0510063,-1.108013 z M 18.901613,4.2397801 h -3.153019 c -0.580156,0 -1.051006,0.4963899 -1.051006,1.1080134 0,0.6116234 0.47085,1.1080135 1.051006,1.1080135 h 3.153019 c 0.580156,0 1.051006,-0.4963901 1.051006,-1.1080135 0,-0.6116235 -0.47085,-1.1080134 -1.051006,-1.1080134 z"
       id="path4"
       style="stroke-width:1.07914;fill:#5c5c5c;fill-opacity:1;stroke:none;stroke-opacity:1" />
  </g>
</svg>
