<?xml version="1.0" encoding="UTF-8" standalone="no"?>
<!-- Created with Inkscape (http://www.inkscape.org/) -->

<svg
   xmlns:dc="http://purl.org/dc/elements/1.1/"
   xmlns:cc="http://creativecommons.org/ns#"
   xmlns:rdf="http://www.w3.org/1999/02/22-rdf-syntax-ns#"
   xmlns:svg="http://www.w3.org/2000/svg"
   xmlns="http://www.w3.org/2000/svg"
   xmlns:xlink="http://www.w3.org/1999/xlink"
   xmlns:sodipodi="http://sodipodi.sourceforge.net/DTD/sodipodi-0.dtd"
   xmlns:inkscape="http://www.inkscape.org/namespaces/inkscape"
   width="30"
   height="30"
   viewBox="0 0 7.9374998 7.9375002"
   version="1.1"
   id="svg76"
   inkscape:version="0.92.4 (5da689c313, 2019-01-14)"
   sodipodi:docname="delete_icon.svg">
  <defs
     id="defs70" />
  <sodipodi:namedview
     id="base"
     pagecolor="#ffffff"
     bordercolor="#666666"
     borderopacity="1.0"
     inkscape:pageopacity="0.0"
     inkscape:pageshadow="2"
     inkscape:zoom="3.959798"
     inkscape:cx="-68.101623"
     inkscape:cy="34.905665"
     inkscape:document-units="mm"
     inkscape:current-layer="layer1"
     showgrid="true"
     units="px"
     showguides="true"
     inkscape:guide-bbox="true"
     inkscape:window-width="1920"
     inkscape:window-height="1027"
     inkscape:window-x="-8"
     inkscape:window-y="-8"
     inkscape:window-maximized="1">
    <inkscape:grid
       type="xygrid"
       id="grid94" />
    <sodipodi:guide
       position="4.4979166,1.3229167"
       orientation="0,1"
       id="guide3799"
       inkscape:locked="false" />
  </sodipodi:namedview>
  <metadata
     id="metadata73">
    <rdf:RDF>
      <cc:Work
         rdf:about="">
        <dc:format>image/svg+xml</dc:format>
        <dc:type
           rdf:resource="http://purl.org/dc/dcmitype/StillImage" />
        <dc:title></dc:title>
      </cc:Work>
    </rdf:RDF>
  </metadata>
  <g
     inkscape:label="Layer 1"
     inkscape:groupmode="layer"
     id="layer1"
     transform="translate(0,-289.06247)">
    <line
       style="fill:#ff5555;stroke:#ffffff;stroke-width:0.97024781;stroke-miterlimit:10;fill-opacity:1"
       x1="2.6615958"
       y1="294.35468"
       x2="5.4189782"
       y2="291.62231"
       id="line28" />
    <use
       x="0"
       y="0"
       xlink:href="#line28"
       id="use3816"
       transform="matrix(1,0,0,-1,0,585.97699)"
       width="100%"
       height="100%" />
    <path
       style="fill:#ff5555;fill-opacity:1;stroke-width:0.01519181"
       d="m 1.4691448,295.43839 -0.61179388,-0.62852 0.92847418,-0.92691 c 0.510661,-0.50978 0.9260108,-0.93262 0.9230001,-0.93963 -0.00303,-0.007 -0.4208241,-0.42888 -0.9284742,-0.93748 l -0.92300008,-0.92471 0.61377798,-0.62635 0.613778,-0.62633 0.5513204,0.55681 c 0.3032262,0.30626 0.7270908,0.72923 0.9419214,0.93993 l 0.3906013,0.3831 0.7669314,-0.76933 c 0.421812,-0.42313 0.8441398,-0.84478 0.938506,-0.93701 l 0.1715749,-0.16767 0.6107419,0.62493 0.6107426,0.62494 -0.9336286,0.9343 c -0.8711179,0.87175 -0.9317451,0.93581 -0.9055022,0.95661 0.015468,0.0123 0.4359614,0.43169 0.9344266,0.93203 l 0.9062998,0.90971 -0.6153627,0.62397 -0.6153627,0.62398 -0.9371808,-0.94008 -0.9371803,-0.94006 -0.3654073,0.36439 c -0.2009746,0.20041 -0.6246081,0.62392 -0.9414084,0.94115 l -0.5760012,0.57677 z"
       id="path3818"
       inkscape:connector-curvature="0" />
  </g>
</svg>
