<?xml version="1.0" encoding="UTF-8" standalone="no"?>
<!-- Generator: Adobe Illustrator 19.0.0, SVG Export Plug-In . SVG Version: 6.00 Build 0)  -->

<svg
   xmlns:dc="http://purl.org/dc/elements/1.1/"
   xmlns:cc="http://creativecommons.org/ns#"
   xmlns:rdf="http://www.w3.org/1999/02/22-rdf-syntax-ns#"
   xmlns:svg="http://www.w3.org/2000/svg"
   xmlns="http://www.w3.org/2000/svg"
   xmlns:sodipodi="http://sodipodi.sourceforge.net/DTD/sodipodi-0.dtd"
   xmlns:inkscape="http://www.inkscape.org/namespaces/inkscape"
   version="1.1"
   id="Capa_1"
   x="0px"
   y="0px"
   viewBox="0 0 16 16"
   xml:space="preserve"
   sodipodi:docname="desk.svg"
   width="16"
   height="16"
   inkscape:version="0.92.4 (5da689c313, 2019-01-14)"><metadata
   id="metadata61"><rdf:RDF><cc:Work
       rdf:about=""><dc:format>image/svg+xml</dc:format><dc:type
         rdf:resource="http://purl.org/dc/dcmitype/StillImage" /><dc:title></dc:title></cc:Work></rdf:RDF></metadata><defs
   id="defs59" /><sodipodi:namedview
   pagecolor="#ffffff"
   bordercolor="#666666"
   borderopacity="1"
   objecttolerance="10"
   gridtolerance="10"
   guidetolerance="10"
   inkscape:pageopacity="0"
   inkscape:pageshadow="2"
   inkscape:window-width="1920"
   inkscape:window-height="1027"
   id="namedview57"
   showgrid="false"
   inkscape:zoom="20.85965"
   inkscape:cx="11.157006"
   inkscape:cy="6.7644214"
   inkscape:window-x="-8"
   inkscape:window-y="-8"
   inkscape:window-maximized="1"
   inkscape:current-layer="Capa_1" />







<g
   id="g75"
   transform="matrix(0.03072129,0,0,0.03072129,0.39805471,15.460521)"><rect
     id="rect2"
     height="67"
     width="361.98001"
     style="fill:#afb6bb"
     y="-273.91"
     x="75.010002" /><path
     inkscape:connector-curvature="0"
     id="path4"
     d="m 389.94,-230.41 c -2.63,0 -5.21,-1.07 -7.07,-2.93 -0.46,-0.46 -0.88,-0.971 -1.25,-1.521 -0.36,-0.54 -0.66,-1.12 -0.91,-1.729 -0.25,-0.601 -0.45,-1.23 -0.58,-1.87 -0.13,-0.641 -0.19,-1.3 -0.19,-1.95 0,-2.64 1.07,-5.21 2.93,-7.07 0.461,-0.46 0.97,-0.88 1.52,-1.24 0.54,-0.369 1.12,-0.67 1.72,-0.92 0.61,-0.25 1.24,-0.449 1.87,-0.58 3.26,-0.649 6.71,0.421 9.03,2.74 1.86,1.86 2.93,4.441 2.93,7.07 0,2.63 -1.07,5.21 -2.93,7.07 -0.46,0.46 -0.97,0.88 -1.52,1.239 -0.54,0.36 -1.12,0.67 -1.73,0.92 -0.6,0.25 -1.23,0.44 -1.87,0.57 -0.64,0.131 -1.3,0.201 -1.95,0.201 z" /><rect
     id="rect6"
     height="47.570999"
     width="491.97"
     style="fill:#cd6437"
     y="-321.47998"
     x="10.02" /><g
     transform="translate(0,-496)"
     id="g12">
	<rect
   id="rect8"
   height="279.91"
   width="37.973999"
   style="fill:#e7eced"
   y="222.09"
   x="37.040001" />
	<rect
   id="rect10"
   height="279.91"
   width="37.973999"
   style="fill:#e7eced"
   y="222.09"
   x="436.98999" />
</g><g
     transform="translate(0,-496)"
     id="g18">
	<rect
   id="rect14"
   height="83.220001"
   width="156.99001"
   style="fill:#cd6437"
   y="289.09"
   x="280" />
	<rect
   id="rect16"
   height="83.220001"
   width="156.99001"
   style="fill:#cd6437"
   y="372.31"
   x="280" />
</g><rect
     id="rect20"
     height="126.5"
     width="235.98"
     style="fill:#21d8de"
     y="-486"
     x="138.00999" /><rect
     id="rect22"
     height="38.02"
     width="259.10001"
     style="fill:#008c99"
     y="-359.5"
     x="126.45" /><path
     inkscape:connector-curvature="0"
     id="path24"
     d="M 501.985,-331.483 H 395.551 v -28.018 c 0,-5.522 -4.477,-10 -10,-10 h -1.563 V -486 c 0,-5.523 -4.477,-10 -10,-10 H 138.012 c -5.523,0 -10,4.477 -10,10 v 116.499 h -1.563 c -5.523,0 -10,4.478 -10,10 v 28.018 H 10.015 c -5.523,0 -10,4.477 -10,10 v 47.57 c 0,5.523 4.477,10 10,10 H 27.037 V 6 c 0,5.522 4.477,10 10,10 h 37.974 c 5.523,0 10,-4.478 10,-10 v -202.91 h 184.987 v 156.45 c 0,5.522 4.477,10 10,10 H 426.989 V 6 c 0,5.522 4.477,10 10,10 h 37.974 c 5.523,0 10,-4.478 10,-10 v -269.913 h 17.022 c 5.523,0 10,-4.477 10,-10 v -47.57 c 0,-5.523 -4.477,-10 -10,-10 z M 148.012,-476 h 215.976 v 106.499 H 148.012 Z m -11.563,126.499 h 239.102 v 18.018 H 136.449 Z M 65.011,-4 H 47.037 v -259.913 h 17.974 z m 20,-226.411 h 262.932 c 5.523,0 10,-4.478 10,-10 0,-5.522 -4.477,-10 -10,-10 H 85.011 v -13.502 h 341.978 v 47.003 H 85.011 Z m 341.978,33.501 v 63.225 H 289.998 V -196.91 Z M 289.998,-50.46 v -63.225 H 426.989 V -50.46 Z M 464.963,-4 h -17.974 v -259.913 h 17.974 z m 27.022,-279.913 H 20.015 v -27.57 h 471.97 z" /></g>
<g
   id="g26"
   transform="translate(0,-496)">
</g>
<g
   id="g28"
   transform="translate(0,-496)">
</g>
<g
   id="g30"
   transform="translate(0,-496)">
</g>
<g
   id="g32"
   transform="translate(0,-496)">
</g>
<g
   id="g34"
   transform="translate(0,-496)">
</g>
<g
   id="g36"
   transform="translate(0,-496)">
</g>
<g
   id="g38"
   transform="translate(0,-496)">
</g>
<g
   id="g40"
   transform="translate(0,-496)">
</g>
<g
   id="g42"
   transform="translate(0,-496)">
</g>
<g
   id="g44"
   transform="translate(0,-496)">
</g>
<g
   id="g46"
   transform="translate(0,-496)">
</g>
<g
   id="g48"
   transform="translate(0,-496)">
</g>
<g
   id="g50"
   transform="translate(0,-496)">
</g>
<g
   id="g52"
   transform="translate(0,-496)">
</g>
<g
   id="g54"
   transform="translate(0,-496)">
</g>
</svg>