<?xml version="1.0" encoding="UTF-8" standalone="no"?>
<!-- Generator: Adobe Illustrator 19.0.0, SVG Export Plug-In . SVG Version: 6.00 Build 0)  -->

<svg
   xmlns:dc="http://purl.org/dc/elements/1.1/"
   xmlns:cc="http://creativecommons.org/ns#"
   xmlns:rdf="http://www.w3.org/1999/02/22-rdf-syntax-ns#"
   xmlns:svg="http://www.w3.org/2000/svg"
   xmlns="http://www.w3.org/2000/svg"
   xmlns:sodipodi="http://sodipodi.sourceforge.net/DTD/sodipodi-0.dtd"
   xmlns:inkscape="http://www.inkscape.org/namespaces/inkscape"
   version="1.1"
   id="Capa_1"
   x="0px"
   y="0px"
   viewBox="0 0 16 16"
   xml:space="preserve"
   sodipodi:docname="desk-lamp.svg"
   width="16"
   height="16"
   inkscape:version="0.92.4 (5da689c313, 2019-01-14)"><metadata
   id="metadata71"><rdf:RDF><cc:Work
       rdf:about=""><dc:format>image/svg+xml</dc:format><dc:type
         rdf:resource="http://purl.org/dc/dcmitype/StillImage" /><dc:title></dc:title></cc:Work></rdf:RDF></metadata><defs
   id="defs69" /><sodipodi:namedview
   pagecolor="#ffffff"
   bordercolor="#666666"
   borderopacity="1"
   objecttolerance="10"
   gridtolerance="10"
   guidetolerance="10"
   inkscape:pageopacity="0"
   inkscape:pageshadow="2"
   inkscape:window-width="1920"
   inkscape:window-height="1027"
   id="namedview67"
   showgrid="false"
   inkscape:zoom="20.85965"
   inkscape:cx="12.431821"
   inkscape:cy="8.0018696"
   inkscape:window-x="-8"
   inkscape:window-y="-8"
   inkscape:window-maximized="1"
   inkscape:current-layer="Capa_1" />











<g
   id="g107"
   transform="matrix(0.0279218,0,0,0.0279218,0.86290997,15.085914)"><g
     transform="translate(0,-496)"
     id="g8">
	<polyline
   id="polyline2"
   points="69.751,183.206 135.605,112.916 107.302,84.613 32.648,164.214  "
   style="fill:#e7eced" />
	<path
   inkscape:connector-curvature="0"
   id="path4"
   d="m 34.864,224.211 42.544,62.608 c 3.871,-12.609 15.607,-21.776 29.484,-21.776 1.562,0 3.097,0.117 4.597,0.341 L 70.003,203.99 c -4.164,12.103 -15.65,20.799 -29.166,20.799 -2.043,0.001 -4.04,-0.198 -5.973,-0.578 z"
   style="fill:#e7eced" />
	<polyline
   id="polyline6"
   points="87.224,319.633 81.385,371.402 121.223,371.402 126.674,319.538  "
   style="fill:#e7eced" />
</g><polygon
     transform="translate(0,-496)"
     id="polygon10"
     points="127.288,126.22 211.695,41.813 313.551,108.307 193.783,228.075 "
     style="fill:#ff4c4c" /><rect
     id="rect12"
     height="50.949512"
     width="88.788147"
     style="fill:#f33939;stroke-width:0.9999904"
     transform="rotate(135)"
     y="171.46922"
     x="-455.55811" /><path
     inkscape:connector-curvature="0"
     id="path14"
     d="m 281.411,-300.064 v 0 c -12.073,12.073 -31.647,12.073 -43.72,0 l -5.884,-5.885 43.72,-43.72 5.885,5.884 c 12.072,12.074 12.072,31.648 -10e-4,43.721 z"
     style="fill:#ffde55" /><g
     transform="translate(0,-496)"
     id="g20">
	<circle
   id="circle16"
   r="30.837999"
   cy="295.88"
   cx="106.89"
   style="fill:#afb6bb" />
	<circle
   id="circle18"
   r="30.837999"
   cy="193.95"
   cx="40.838001"
   style="fill:#afb6bb" />
</g><rect
     id="rect22"
     height="47"
     width="136.78"
     style="fill:#008c99"
     y="-124.60001"
     x="28.030001" /><rect
     id="rect24"
     height="69.07"
     width="289.53"
     style="fill:#ffde55"
     y="-146.66"
     x="212.47" /><rect
     id="rect26"
     height="69.07"
     width="43.587002"
     style="fill:#fec549"
     y="-146.66"
     x="412.22" /><path
     inkscape:connector-curvature="0"
     id="path28"
     d="m 371.008,-100.497 h -72.19 c -5.523,0 -10,-4.477 -10,-10 0,-5.523 4.477,-10 10,-10 h 72.19 c 5.522,0 10,4.477 10,10 0,5.522 -4.478,10 -10,10 z" /><rect
     id="rect30"
     height="77"
     width="492"
     style="fill:#cd6437"
     y="-77.600006"
     x="10" /><path
     inkscape:connector-curvature="0"
     id="path32"
     d="m 444.08,-22.03 c -0.65,0 -1.311,-0.07 -1.95,-0.2 -0.64,-0.13 -1.271,-0.32 -1.87,-0.57 -0.61,-0.25 -1.19,-0.56 -1.729,-0.92 -0.551,-0.36 -1.061,-0.78 -1.521,-1.24 -0.46,-0.46 -0.88,-0.97 -1.24,-1.52 -0.359,-0.54 -0.67,-1.12 -0.92,-1.73 -0.25,-0.6 -0.45,-1.23 -0.569,-1.87 -0.131,-0.64 -0.2,-1.3 -0.2,-1.95 0,-0.65 0.069,-1.31 0.2,-1.95 0.119,-0.64 0.319,-1.27 0.569,-1.88 0.25,-0.6 0.561,-1.18 0.92,-1.72 0.36,-0.55 0.78,-1.06 1.24,-1.52 0.46,-0.46 0.97,-0.88 1.521,-1.25 0.539,-0.36 1.119,-0.67 1.729,-0.92 0.6,-0.25 1.23,-0.44 1.87,-0.56 1.29,-0.26 2.62,-0.26 3.91,0 0.63,0.12 1.26,0.31 1.87,0.56 0.6,0.25 1.18,0.56 1.72,0.92 0.55,0.37 1.06,0.79 1.52,1.25 0.46,0.46 0.881,0.97 1.25,1.52 0.351,0.54 0.66,1.12 0.91,1.72 0.25,0.61 0.45,1.24 0.57,1.88 0.13,0.64 0.2,1.3 0.2,1.95 0,0.65 -0.07,1.31 -0.2,1.95 -0.12,0.64 -0.32,1.27 -0.57,1.87 -0.25,0.61 -0.56,1.19 -0.91,1.73 -0.369,0.55 -0.79,1.06 -1.25,1.52 -0.46,0.46 -0.97,0.88 -1.52,1.24 -0.54,0.36 -1.12,0.67 -1.72,0.92 -0.61,0.25 -1.24,0.44 -1.87,0.57 -0.65,0.13 -1.311,0.2 -1.96,0.2 z" /><path
     inkscape:connector-curvature="0"
     id="path34"
     d="M 502,-156.665 H 212.467 c -5.522,0 -10,4.477 -10,10 v 59.067 h -27.659 v -37 c 0,-5.523 -4.478,-10 -10,-10 h -32.479 l 3.904,-37.145 c 7.113,-7.353 11.497,-17.362 11.497,-28.376 0,-18.844 -12.829,-34.747 -30.211,-39.436 l -36.674,-54.273 c 0.545,-2.656 0.831,-5.405 0.831,-8.22 0,-2.74 -0.272,-5.417 -0.789,-8.006 l 43.287,-46.203 61.234,93.798 c 1.647,2.523 4.344,4.169 7.341,4.48 0.345,0.036 0.691,0.054 1.034,0.054 2.638,0 5.186,-1.044 7.07,-2.929 l 30.978,-30.978 c 7.574,6.991 17.352,10.821 27.72,10.821 10.929,0 21.203,-4.256 28.932,-11.983 v -10e-4 c 15.555,-15.555 15.942,-40.622 1.162,-56.651 l 30.977,-30.977 c 2.13,-2.13 3.186,-5.108 2.875,-8.104 -0.312,-2.997 -1.957,-5.693 -4.479,-7.34 l -101.856,-66.494 c -3.96,-2.585 -9.192,-2.043 -12.538,1.302 l -3.739,3.739 -28.956,-28.956 c -1.876,-1.875 -4.419,-2.929 -7.071,-2.929 -2.652,0 -5.195,1.054 -7.071,2.929 L 95,-423.688 c -1.875,1.875 -2.929,4.418 -2.929,7.071 0,1.873 0.526,3.691 1.495,5.258 l -66.438,70.842 C 11.333,-334.871 0,-319.758 0,-302.047 c 0,18.298 12.097,33.824 28.714,39 l 37.955,55.854 c -0.403,2.298 -0.614,4.662 -0.614,7.074 0,10.587 4.05,20.246 10.682,27.51 l -4.287,38.011 H 28.026 c -5.522,0 -10,4.477 -10,10 v 37 H 10 c -5.523,0 -10,4.477 -10,10 v 77.002 c 0,5.523 4.477,10 10,10 h 492 c 5.522,0 10,-4.477 10,-10 v -146.069 c 0,-5.522 -4.478,-10 -10,-10 z m -10,69.067 h -26.192 v -49.067 H 492 Z m -46.192,-49.067 v 49.067 h -23.587 v -49.067 z m -180.702,49.067 v -49.067 H 402.22 v 49.067 z m -42.639,-49.067 h 22.64 v 49.067 h -22.64 z m -94.738,-63.453 c 0,11.49 -9.348,20.837 -20.837,20.837 -11.49,0 -20.838,-9.348 -20.838,-20.837 0,-11.49 9.348,-20.838 20.838,-20.838 11.49,0 20.837,9.347 20.837,20.838 z m -73.182,-140.4 52.985,-56.497 14.158,14.157 -50.323,53.713 c -4.52,-5.086 -10.289,-9.038 -16.82,-11.373 z m 219.793,33.382 c -3.95,3.95 -9.202,6.126 -14.789,6.126 -5.023,0 -9.776,-1.759 -13.555,-4.986 l 29.484,-29.484 c 6.996,8.209 6.615,20.589 -1.14,28.344 z m -61.314,-134.24 84.743,55.323 -102.347,102.347 -55.322,-84.743 z m -48.169,-23.886 21.885,21.885 -48.644,48.644 -21.885,-21.885 z M 40.838,-322.885 c 11.49,0 20.838,9.348 20.838,20.838 0,11.49 -9.348,20.837 -20.838,20.837 -11.49,0 -20.838,-9.348 -20.838,-20.837 0,-11.491 9.348,-20.838 20.838,-20.838 z m 12.069,59.855 c 6.678,-2.07 12.627,-5.81 17.359,-10.73 l 23.605,34.933 c -6.572,2.217 -12.401,6.064 -17.003,11.057 z m 42.634,102.143 c 3.605,1.045 7.414,1.605 11.352,1.605 2.738,0 5.414,-0.272 8.003,-0.788 l -2.677,25.472 H 92.576 Z m -57.515,46.289 h 116.781 v 27 H 38.026 Z M 492,-10.596 H 20 v -11.436 h 382.082 c 5.522,0 10,-4.477 10,-10 0,-5.523 -4.478,-10 -10,-10 H 20 v -25.566 h 472 z" /></g>
<g
   id="g36"
   transform="translate(0,-496)">
</g>
<g
   id="g38"
   transform="translate(0,-496)">
</g>
<g
   id="g40"
   transform="translate(0,-496)">
</g>
<g
   id="g42"
   transform="translate(0,-496)">
</g>
<g
   id="g44"
   transform="translate(0,-496)">
</g>
<g
   id="g46"
   transform="translate(0,-496)">
</g>
<g
   id="g48"
   transform="translate(0,-496)">
</g>
<g
   id="g50"
   transform="translate(0,-496)">
</g>
<g
   id="g52"
   transform="translate(0,-496)">
</g>
<g
   id="g54"
   transform="translate(0,-496)">
</g>
<g
   id="g56"
   transform="translate(0,-496)">
</g>
<g
   id="g58"
   transform="translate(0,-496)">
</g>
<g
   id="g60"
   transform="translate(0,-496)">
</g>
<g
   id="g62"
   transform="translate(0,-496)">
</g>
<g
   id="g64"
   transform="translate(0,-496)">
</g>
</svg>