<?xml version="1.0" encoding="UTF-8" standalone="no"?>
<!-- Created with Inkscape (http://www.inkscape.org/) -->

<svg
   xmlns:dc="http://purl.org/dc/elements/1.1/"
   xmlns:cc="http://creativecommons.org/ns#"
   xmlns:rdf="http://www.w3.org/1999/02/22-rdf-syntax-ns#"
   xmlns:svg="http://www.w3.org/2000/svg"
   xmlns="http://www.w3.org/2000/svg"
   xmlns:sodipodi="http://sodipodi.sourceforge.net/DTD/sodipodi-0.dtd"
   xmlns:inkscape="http://www.inkscape.org/namespaces/inkscape"
   width="16"
   height="16"
   viewBox="0 0 4.2333332 4.2333335"
   version="1.1"
   id="svg20"
   sodipodi:docname="folder.svg"
   inkscape:version="0.92.4 (5da689c313, 2019-01-14)">
  <defs
     id="defs14" />
  <sodipodi:namedview
     id="base"
     pagecolor="#ffffff"
     bordercolor="#666666"
     borderopacity="1.0"
     inkscape:pageopacity="0.0"
     inkscape:pageshadow="2"
     inkscape:zoom="31.678384"
     inkscape:cx="9.4442257"
     inkscape:cy="10.571741"
     inkscape:document-units="mm"
     inkscape:current-layer="g43"
     showgrid="false"
     units="px"
     inkscape:window-width="1920"
     inkscape:window-height="1027"
     inkscape:window-x="-8"
     inkscape:window-y="-8"
     inkscape:window-maximized="1" />
  <metadata
     id="metadata17">
    <rdf:RDF>
      <cc:Work
         rdf:about="">
        <dc:format>image/svg+xml</dc:format>
        <dc:type
           rdf:resource="http://purl.org/dc/dcmitype/StillImage" />
        <dc:title></dc:title>
      </cc:Work>
    </rdf:RDF>
  </metadata>
  <g
     inkscape:label="Layer 1"
     inkscape:groupmode="layer"
     id="layer1"
     transform="translate(0,-292.76665)">
    <g
       transform="matrix(0.00961021,0,0,-0.00961021,0.52883741,296.40454)"
       inkscape:label="ink_ext_XXXXXX"
       id="g41">
      <g
         transform="matrix(0.1,0,0,0.1,-4.3454684,6.0836557)"
         id="g43">
        <path
           inkscape:connector-curvature="0"
           id="path45"
           style="fill:#213665;fill-opacity:1;fill-rule:nonzero;stroke:none;stroke-width:1.05893922"
           d="M 606.27747,2427.3818 H 3712.3144 c 33.6849,0 60.9949,-27.31 60.9949,-60.9949 0,-6.6078 -1.0483,-12.9826 -3.0074,-18.9444 l -672.744,-2510.73889 -58.8665,15.71455 58.93,-15.78074 c -7.4126,-27.6399 -32.6577,-45.72877 -60.0313,-45.20757 H -68.449148 c -33.683372,0 -60.996602,27.30907 -60.996602,60.98831 0,6.61837 1.0548,12.98852 3.00722,18.95745 l 672.75356,2510.73649 58.84949,-15.7252 -58.92044,15.7888 c 7.40411,27.6383 32.65345,45.725 60.03339,45.2061 z M 3632.894,2305.392 H 651.88598 L 10.958798,-86.576883 H 2991.9816 L 3632.894,2305.392" />
        <path
           inkscape:connector-curvature="0"
           id="path47"
           style="fill:#213665;fill-opacity:1;fill-rule:nonzero;stroke:none;stroke-width:1.05893922"
           d="M 456.23425,2822.9168 H 3037.7702 c 33.6954,0 61.0054,-27.2995 61.0054,-60.9844 v -395.5455 c 0,-33.6849 -27.31,-60.9949 -61.0054,-60.9949 H 651.88598 L -9.5750918,-163.21358 l -58.8492772,15.71444 58.9117472,-15.78063 c -7.4252802,-27.73097 -32.8229802,-45.85294 -60.3016052,-45.19938 -33.480693,0.23578 -60.549823,27.44553 -60.549823,60.98001 v 2719.98734 189.4442 322.8177 c 0,33.6848 27.30909,60.9949 60.99246,60.9949 h 464.61412 c 33.68698,0 60.99172,-27.3101 60.99172,-60.9949 z M 2976.7753,2700.927 H 395.24253 c -33.68803,0 -60.99701,27.31 -60.99701,61.0054 v 261.8228 H -8.3753118 V 2761.9324 2572.4882 311.98559 L 545.47529,2378.9989 c 5.8157,27.6383 30.32802,48.3829 59.68923,48.3829 H 2976.7753 v 273.5452" />
        <path
           inkscape:connector-curvature="0"
           id="path49"
           style="fill:#afbec4;fill-opacity:1;fill-rule:evenodd;stroke:none;stroke-width:1.05893922"
           d="M 3037.7702,2305.392 H 651.88598 L 10.958798,-86.576883 H 2991.9816 L 3632.894,2305.392 h -595.1238" />
        <path
           inkscape:connector-curvature="0"
           id="path51"
           style="fill:#afbec4;fill-opacity:1;fill-rule:evenodd;stroke:none;stroke-width:1.05893922"
           d="m 550.00861,2392.458 c 0.054,0.1165 0.10378,0.2224 0.15673,0.3282 4.16586,8.7045 10.25476,16.0959 17.59745,21.7824 0.09,0.074 0.18108,0.1483 0.28062,0.2224 -7.64766,-5.8771 -13.86152,-13.5226 -18.0348,-22.333 z m 101.87737,-87.066 H 3632.894 L 2991.9816,-86.576883 H 10.958798 L 651.88598,2305.392" />
        <path
           inkscape:connector-curvature="0"
           id="path53"
           style="fill:#f6bd25;fill-opacity:1;fill-rule:evenodd;stroke:none;stroke-width:1.05893922"
           d="m 550.00861,2392.458 0.15673,0.3282 c -0.053,-0.1058 -0.10272,-0.2117 -0.15673,-0.3282 z m -3.76453,-10.2823 c 0.90646,3.4309 2.12212,6.7454 3.5951,9.9222 0.0572,0.1271 0.11119,0.2436 0.16943,0.3601 -1.5344,-3.251 -2.79665,-6.6819 -3.76453,-10.2823 z m 21.79933,32.6153 c 0.0995,0.074 0.19908,0.1483 0.29015,0.2224 7.4867,5.6759 16.32672,9.6681 25.94824,11.4048 0.0699,0.01 0.13555,0.021 0.2065,0.032 -9.65859,-1.726 -18.73476,-5.7606 -26.44489,-11.6589 z m 83.84257,-109.399 H 3632.894 L 2991.9816,-86.576883 H 10.958798 Z m -101.72064,87.3942 c 4.16586,8.7045 10.25476,16.0959 17.59745,21.7824 -0.12072,-0.085 -0.23615,-0.18 -0.34839,-0.2753 -0.0942,-0.063 -0.18108,-0.1377 -0.27215,-0.2118 -7.06524,-5.623 -12.92647,-12.8343 -16.97691,-21.2953 z m 16.65393,21.0412 c 0.0995,0.074 0.19061,0.1482 0.28909,0.2223 0.008,0.021 0.0212,0.021 0.0339,0.032 -0.11225,-0.085 -0.21602,-0.1694 -0.32298,-0.2541" />
        <path
           inkscape:connector-curvature="0"
           id="path55"
           style="fill:#d45500;fill-opacity:1;fill-rule:evenodd;stroke:none;stroke-width:1.05893922"
           d="m 549.83918,2392.0979 c 0.0572,0.1271 0.11119,0.2436 0.16943,0.3601 -0.0582,-0.1165 -0.11224,-0.233 -0.16943,-0.3601 z m 39.51114,33.219 c 1.63395,0.4341 3.2806,0.8048 4.93148,1.1013 0.0699,0.01 0.13555,0.021 0.2065,0.032 3.4659,0.6142 7.03559,0.9319 10.67622,0.9425 0.37169,0 0.7402,0 1.11295,-0.011 H 2976.7753 v 273.5452 H 395.24253 c -33.68803,0 -60.99701,27.31 -60.99701,61.0054 v 261.8228 H -8.3753118 V 2761.9324 2572.4882 311.98559 L 545.47529,2378.9989 c 0.22768,1.0695 0.4797,2.1284 0.76879,3.1768 0.90646,3.4309 2.12212,6.7454 3.5951,9.9222 0.0572,0.1271 0.11119,0.2436 0.16943,0.3601 0.054,0.1165 0.10378,0.2224 0.15673,0.3282 0.0953,0.2224 0.20755,0.4342 0.3145,0.646 0.24885,0.5083 0.50088,1.006 0.76561,1.5037 2.27884,4.3099 5.04691,8.2809 8.19831,11.8495 2.27143,2.5732 4.74511,4.9347 7.37551,7.042 0.10696,0.095 0.21073,0.1694 0.32298,0.2541 0.0868,0.074 0.17367,0.1483 0.27215,0.2118 0.0413,0.042 0.0837,0.074 0.12919,0.1059 0.0328,0.021 0.0614,0.053 0.09,0.074 0.0423,0.032 0.0837,0.064 0.12919,0.095 0.09,0.074 0.18108,0.1483 0.28062,0.2224 0.0995,0.074 0.19908,0.1483 0.29015,0.2224 3.02327,2.3296 6.39917,4.4052 9.97309,6.1524 0.0455,0.021 0.0784,0.042 0.12813,0.064 3.48285,1.6943 7.16372,3.0709 10.91554,4.0875" />
      </g>
    </g>
  </g>
</svg>
