<svg id="_x31__x2C_5" enable-background="new 0 0 24 24" height="512" viewBox="0 0 24 24" width="512" xmlns="http://www.w3.org/2000/svg"><path d="m19.25 4-9.25 3.25-9.25-3.25 9.25-3.24z" fill="#4caf50"/><path d="m19.25 4v12l-9.25 3.25v-12z" fill="#66bb6a"/><path d="m10 7.25v12l-9.25-3.25v-12z" fill="#81c784"/><circle cx="17.5" cy="17.5" fill="#2196f3" r="5.75"/><path d="m17.5 21c-.192 0-.384-.073-.53-.22l-2.25-2.25c-.293-.293-.293-.768 0-1.061s.768-.293 1.061 0l1.72 1.72 1.72-1.72c.293-.293.768-.293 1.061 0s.293.768 0 1.061l-2.25 2.25c-.148.147-.34.22-.532.22z"/><path d="m17.5 20.5c-.414 0-.75-.336-.75-.75v-5c0-.414.336-.75.75-.75s.75.336.75.75v5c0 .414-.336.75-.75.75z"/><path d="m17.5 24c-3.584 0-6.5-2.916-6.5-6.5s2.916-6.5 6.5-6.5 6.5 2.916 6.5 6.5-2.916 6.5-6.5 6.5zm0-11.5c-2.757 0-5 2.243-5 5s2.243 5 5 5 5-2.243 5-5-2.243-5-5-5z"/><path d="m10 8c-.084 0-.168-.014-.249-.042l-9.25-3.25c-.3-.105-.501-.39-.501-.708s.201-.603.501-.708l9.25-3.25c.162-.057.336-.057.498 0l9.25 3.25c.3.105.501.39.501.708s-.201.603-.501.708l-9.25 3.25c-.081.028-.165.042-.249.042zm-6.987-4 6.987 2.455 6.987-2.455-6.987-2.455z"/><path d="m19.25 9c-.414 0-.75-.336-.75-.75v-4.25c0-.414.336-.75.75-.75s.75.336.75.75v4.25c0 .414-.336.75-.75.75z"/><path d="m8.59 19.5c-.082 0-.166-.014-.248-.042l-7.84-2.75c-.301-.105-.502-.39-.502-.708v-12c0-.414.336-.75.75-.75s.75.336.75.75v11.469l7.338 2.573c.391.138.597.565.46.956-.109.309-.399.502-.708.502z"/><path d="m10 13c-.414 0-.75-.336-.75-.75v-5c0-.414.336-.75.75-.75s.75.336.75.75v5c0 .414-.336.75-.75.75z"/></svg>