<?xml version="1.0" encoding="UTF-8" standalone="no"?>
<!-- Generator: Adobe Illustrator 19.0.0, SVG Export Plug-In . SVG Version: 6.00 Build 0)  -->

<svg
   xmlns:dc="http://purl.org/dc/elements/1.1/"
   xmlns:cc="http://creativecommons.org/ns#"
   xmlns:rdf="http://www.w3.org/1999/02/22-rdf-syntax-ns#"
   xmlns:svg="http://www.w3.org/2000/svg"
   xmlns="http://www.w3.org/2000/svg"
   xmlns:sodipodi="http://sodipodi.sourceforge.net/DTD/sodipodi-0.dtd"
   xmlns:inkscape="http://www.inkscape.org/namespaces/inkscape"
   version="1.1"
   id="Capa_1"
   x="0px"
   y="0px"
   viewBox="0 0 16 16"
   xml:space="preserve"
   sodipodi:docname="selective.svg"
   width="16"
   height="16"
   inkscape:version="0.92.4 (5da689c313, 2019-01-14)"><metadata
   id="metadata63"><rdf:RDF><cc:Work
       rdf:about=""><dc:format>image/svg+xml</dc:format><dc:type
         rdf:resource="http://purl.org/dc/dcmitype/StillImage" /><dc:title></dc:title></cc:Work></rdf:RDF></metadata><defs
   id="defs61" /><sodipodi:namedview
   pagecolor="#ffffff"
   bordercolor="#666666"
   borderopacity="1"
   objecttolerance="10"
   gridtolerance="10"
   guidetolerance="10"
   inkscape:pageopacity="0"
   inkscape:pageshadow="2"
   inkscape:window-width="1920"
   inkscape:window-height="1027"
   id="namedview59"
   showgrid="false"
   inkscape:zoom="29.5"
   inkscape:cx="7.0137965"
   inkscape:cy="5.2809793"
   inkscape:window-x="-8"
   inkscape:window-y="-8"
   inkscape:window-maximized="1"
   inkscape:current-layer="Capa_1" />












<g
   id="g78"
   transform="matrix(0.03068065,0,0,0.03068065,0.14802152,0.1220194)"><circle
     id="circle2"
     r="34"
     cy="44"
     cx="294.32001"
     style="fill:#c1ee92" /><path
     id="path4"
     d="m 367.883,168 c 0,-25.957 -21.043,-47 -47,-47 -25.957,0 -47,21.043 -47,47 z"
     style="fill:#ff5d5d"
     inkscape:connector-curvature="0" /><circle
     id="circle6"
     r="34"
     cy="134"
     cx="170.37"
     style="fill:#fed284" /><path
     id="path8"
     d="M 433.797,168 H 86.598 c -8.005,0 -12.765,8.938 -8.298,15.58 L 214.198,385.666 V 502 l 92,-40.063 V 385.666 L 442.095,183.58 C 446.562,176.938 441.802,168 433.797,168 Z"
     style="fill:#96ede7"
     inkscape:connector-curvature="0" /><path
     id="path10"
     d="M 433.797,168 H 86.598 c -8.005,0 -12.765,8.938 -8.298,15.58 L 100.101,216 h 320.192 l 21.802,-32.42 C 446.562,176.938 441.802,168 433.797,168 Z"
     style="fill:#d9f9f7"
     inkscape:connector-curvature="0" /><path
     id="path12"
     d="M 451.449,168.599 C 447.967,162.061 441.204,158 433.797,158 h -56.81 c -4.743,-26.675 -28.087,-47 -56.104,-47 -28.017,0 -51.361,20.325 -56.104,47 h -57.555 c 4.514,-6.908 7.15,-15.15 7.15,-24 0,-24.262 -19.738,-44 -44,-44 -24.262,0 -44,19.738 -44,44 0,8.85 2.636,17.092 7.15,24 H 86.598 c -7.407,0 -14.17,4.061 -17.652,10.599 -3.481,6.537 -3.077,14.416 1.056,20.562 L 204.198,388.717 V 502 c 0,3.372 1.699,6.517 4.52,8.364 1.653,1.083 3.562,1.636 5.481,1.636 1.354,0 2.713,-0.275 3.992,-0.832 l 92,-40.063 c 3.648,-1.589 6.007,-5.189 6.007,-9.168 V 388.716 L 450.393,189.16 c 4.133,-6.145 4.538,-14.024 1.056,-20.561 z M 320.883,131 c 16.937,0 31.241,11.443 35.616,27 h -71.231 c 4.374,-15.557 18.679,-27 35.615,-27 z m -174.508,3 c 0,-13.233 10.767,-24 24,-24 13.233,0 24,10.767 24,24 0,13.233 -10.767,24 -24,24 -13.233,0 -24,-10.767 -24,-24 z m 151.524,246.086 c -1.109,1.649 -1.702,3.592 -1.702,5.58 v 69.719 l -72,31.353 v -91.072 h 36.127 c 5.523,0 10,-4.477 10,-10 0,-5.523 -4.477,-10 -10,-10 H 219.523 L 118.88,226 h 202.003 c 5.523,0 10,-4.477 10,-10 0,-5.523 -4.477,-10 -10,-10 H 105.431 L 86.602,178 h 347.194 z"
     inkscape:connector-curvature="0" /><path
     id="path14"
     d="m 294.324,88 c 24.262,0 44,-19.738 44,-44 0,-24.262 -19.738,-44 -44,-44 -24.262,0 -44,19.738 -44,44 0,24.262 19.739,44 44,44 z m 0,-68 c 13.233,0 24,10.767 24,24 0,13.233 -10.767,24 -24,24 -13.233,0 -24,-10.767 -24,-24 0,-13.233 10.767,-24 24,-24 z"
     inkscape:connector-curvature="0" /><path
     id="path16"
     d="m 401.197,125.168 c 5.523,0 10,-4.477 10,-10 V 58.333 c 0,-5.523 -4.477,-10 -10,-10 -5.523,0 -10,4.477 -10,10 v 56.834 c 0,5.524 4.477,10.001 10,10.001 z"
     inkscape:connector-curvature="0" /><path
     id="path18"
     d="m 401.197,35.5 c 2.63,0 5.21,-1.07 7.07,-2.93 1.86,-1.86 2.93,-4.44 2.93,-7.07 0,-2.63 -1.07,-5.21 -2.93,-7.07 -1.86,-1.86 -4.44,-2.93 -7.07,-2.93 -2.63,0 -5.21,1.07 -7.07,2.93 -1.86,1.86 -2.93,4.44 -2.93,7.07 0,2.63 1.07,5.21 2.93,7.07 1.86,1.86 4.44,2.93 7.07,2.93 z"
     inkscape:connector-curvature="0" /><path
     id="path20"
     d="m 204.375,73.755 c 5.523,0 10,-4.477 10,-10 v -41 c 0,-5.523 -4.477,-10 -10,-10 -5.523,0 -10,4.477 -10,10 v 41 c 0,5.523 4.477,10 10,10 z"
     inkscape:connector-curvature="0" /><path
     id="path22"
     d="m 68.197,85.168 c 5.523,0 10,-4.477 10,-10 V 10 c 0,-5.523 -4.477,-10 -10,-10 -5.523,0 -10,4.477 -10,10 v 65.168 c 0,5.523 4.477,10 10,10 z"
     inkscape:connector-curvature="0" /><path
     id="path24"
     d="m 75.267,119.74 c 1.86,-1.86 2.93,-4.44 2.93,-7.07 0,-2.64 -1.07,-5.21 -2.93,-7.07 -1.86,-1.87 -4.44,-2.93 -7.07,-2.93 -2.63,0 -5.21,1.06 -7.07,2.93 -1.86,1.86 -2.93,4.43 -2.93,7.07 0,2.63 1.07,5.21 2.93,7.07 1.86,1.86 4.44,2.93 7.07,2.93 2.63,0 5.21,-1.07 7.07,-2.93 z"
     inkscape:connector-curvature="0" /><path
     id="path26"
     d="m 358.277,208.93 c -1.87,1.86 -2.93,4.44 -2.93,7.07 0,2.63 1.06,5.21 2.93,7.07 1.86,1.86 4.43,2.93 7.07,2.93 2.63,0 5.2,-1.07 7.07,-2.93 1.86,-1.86 2.93,-4.44 2.93,-7.07 0,-2.63 -1.07,-5.21 -2.93,-7.07 -1.86,-1.86 -4.44,-2.93 -7.07,-2.93 -2.64,0 -5.22,1.07 -7.07,2.93 z"
     inkscape:connector-curvature="0" /></g>
<g
   id="g28"
   transform="translate(0,-496)">
</g>
<g
   id="g30"
   transform="translate(0,-496)">
</g>
<g
   id="g32"
   transform="translate(0,-496)">
</g>
<g
   id="g34"
   transform="translate(0,-496)">
</g>
<g
   id="g36"
   transform="translate(0,-496)">
</g>
<g
   id="g38"
   transform="translate(0,-496)">
</g>
<g
   id="g40"
   transform="translate(0,-496)">
</g>
<g
   id="g42"
   transform="translate(0,-496)">
</g>
<g
   id="g44"
   transform="translate(0,-496)">
</g>
<g
   id="g46"
   transform="translate(0,-496)">
</g>
<g
   id="g48"
   transform="translate(0,-496)">
</g>
<g
   id="g50"
   transform="translate(0,-496)">
</g>
<g
   id="g52"
   transform="translate(0,-496)">
</g>
<g
   id="g54"
   transform="translate(0,-496)">
</g>
<g
   id="g56"
   transform="translate(0,-496)">
</g>
</svg>