<?xml version="1.0" encoding="UTF-8" standalone="no"?>
<!-- Created with Inkscape (http://www.inkscape.org/) -->

<svg
   xmlns:dc="http://purl.org/dc/elements/1.1/"
   xmlns:cc="http://creativecommons.org/ns#"
   xmlns:rdf="http://www.w3.org/1999/02/22-rdf-syntax-ns#"
   xmlns:svg="http://www.w3.org/2000/svg"
   xmlns="http://www.w3.org/2000/svg"
   xmlns:sodipodi="http://sodipodi.sourceforge.net/DTD/sodipodi-0.dtd"
   xmlns:inkscape="http://www.inkscape.org/namespaces/inkscape"
   width="16"
   height="16"
   viewBox="0 0 4.2333332 4.2333334"
   version="1.1"
   id="svg269"
   inkscape:version="0.92.4 (5da689c313, 2019-01-14)"
   sodipodi:docname="tools.svg">
  <defs
     id="defs263" />
  <sodipodi:namedview
     id="base"
     pagecolor="#ffffff"
     bordercolor="#666666"
     borderopacity="1.0"
     inkscape:pageopacity="0.0"
     inkscape:pageshadow="2"
     inkscape:zoom="22.4"
     inkscape:cx="10.147262"
     inkscape:cy="5.618083"
     inkscape:document-units="mm"
     inkscape:current-layer="layer1"
     showgrid="false"
     units="px"
     inkscape:window-width="1920"
     inkscape:window-height="1027"
     inkscape:window-x="-8"
     inkscape:window-y="-8"
     inkscape:window-maximized="1" />
  <metadata
     id="metadata266">
    <rdf:RDF>
      <cc:Work
         rdf:about="">
        <dc:format>image/svg+xml</dc:format>
        <dc:type
           rdf:resource="http://purl.org/dc/dcmitype/StillImage" />
        <dc:title></dc:title>
      </cc:Work>
    </rdf:RDF>
  </metadata>
  <g
     inkscape:label="Layer 1"
     inkscape:groupmode="layer"
     id="layer1"
     transform="translate(0,-292.76665)">
    <g
       id="g290"
       transform="matrix(0.04459263,0,0,0.04459263,-1.7743155,288.1755)">
      <path
         d="m 68.134214,166.71624 h -8.69245 l -8.11318,7.34025 0.38629,9.07909 9.07909,-8.49948 5.60176,0.19297 2.51107,3.6703 -0.57926,4.82918 -8.49948,7.91986 h 9.07874 l 6.954309,-6.18138 -0.386649,-11.20351 -7.34024,-7.14728"
         style="fill:#231f20;fill-opacity:1;fill-rule:nonzero;stroke:none;stroke-width:0.03527778"
         id="path32"
         inkscape:connector-curvature="0" />
      <path
         d="m 108.89239,141.41113 h 8.6928 l 8.11283,-7.34024 -0.38628,-9.07874 -9.07875,8.49912 -5.60211,-0.19297 -2.51107,-3.6703 0.57961,-4.82917 8.49912,-7.91986 h -9.07873 l -6.95395,6.18137 0.38628,11.20387 7.34025,7.14692"
         style="fill:#231f20;fill-opacity:1;fill-rule:nonzero;stroke:none;stroke-width:0.03527778"
         id="path34"
         inkscape:connector-curvature="0" />
      <path
         d="m 69.679734,165.94366 6.567661,6.76063 30.906515,-30.71354 -6.95397,-5.79508 -30.520206,29.74799"
         style="fill:#ed1c24;fill-opacity:1;fill-rule:nonzero;stroke:none;stroke-width:0.03527778"
         id="path36"
         inkscape:connector-curvature="0" />
      <path
         d="m 110.59313,186.81434 -21.642915,-22.05355 8.19821,-8.79016 23.932805,21.20088 -10.4881,9.64283"
         style="fill:#ed1c24;fill-opacity:1;fill-rule:nonzero;stroke:none;stroke-width:0.03527778"
         id="path56"
         inkscape:connector-curvature="0" />
      <path
         d="m 81.366204,151.6491 -26.174,-26.36732 -4.24991,-1.15887 -5.79508,-10.81758 3.863619,-3.86327 9.272061,5.79508 2.31775,5.0225 24.3392,27.81582 -3.57364,3.57364"
         style="fill:#231f20;fill-opacity:1;fill-rule:nonzero;stroke:none;stroke-width:0.03527778"
         id="path58"
         inkscape:connector-curvature="0" />
    </g>
  </g>
</svg>
