<svg width="24" height="24" viewBox="0 0 24 24" fill="none" xmlns="http://www.w3.org/2000/svg">
<path d="M9.46881 18.1677L8.58859 19.0479C7.79156 19.8449 6.71055 20.2927 5.58337 20.2927C4.45619 20.2927 3.37518 19.8449 2.57815 19.0479C1.78111 18.2508 1.33334 17.1698 1.33334 16.0427C1.33334 14.9155 1.78111 13.8345 2.57815 13.0374L7.08598 8.52865C7.84174 7.77118 8.85542 7.32666 9.92459 7.28386C10.9938 7.24106 12.0397 7.60313 12.8536 8.29777C13.6675 8.99242 14.1894 9.9685 14.3151 11.0311C14.4409 12.0937 14.1611 13.1647 13.5318 14.03" stroke="#6D6D6D" stroke-width="1.8" stroke-linecap="round" stroke-linejoin="round"/>
<path d="M14.6198 5.95314L15.3281 5.2448C16.1252 4.44777 17.2062 4 18.3334 4C19.4605 4 20.5415 4.44777 21.3386 5.2448C22.1356 6.04184 22.5834 7.12285 22.5834 8.25003C22.5834 9.3772 22.1356 10.4582 21.3386 11.2552L16.8308 15.7631C16.0748 16.5202 15.0611 16.9644 13.9921 17.007C12.923 17.0495 11.8773 16.6873 11.0636 15.9926C10.2499 15.2979 9.72812 14.3219 9.6025 13.2593C9.47688 12.1968 9.75661 11.126 10.3859 10.2607" stroke="#6D6D6D" stroke-width="1.8" stroke-linecap="round" stroke-linejoin="round"/>
</svg>
